<?xml version="1.0" encoding="utf-8"?>
<!-- Generator: Adobe Illustrator 22.0.1, SVG Export Plug-In . SVG Version: 6.00 Build 0)  -->
<svg version="1.1" id="Layer_1" xmlns="http://www.w3.org/2000/svg" xmlns:xlink="http://www.w3.org/1999/xlink" x="0px" y="0px"
	 viewBox="0 0 570 289.2" style="enable-background:new 0 0 570 289.2;" xml:space="preserve">
<style type="text/css">
	.st0{fill:#FFFFFF;}
	.st1{clip-path:url(#SVGID_2_);fill:none;stroke:#CCCCCC;stroke-width:0.8;stroke-linejoin:round;stroke-dasharray:0.8,1.32;}
	.st2{fill:#262626;}
	.st3{clip-path:url(#SVGID_4_);fill:none;stroke:#CCCCCC;stroke-width:0.8;stroke-linejoin:round;stroke-dasharray:0.8,1.32;}
	.st4{clip-path:url(#SVGID_6_);fill:none;stroke:#CCCCCC;stroke-width:0.8;stroke-linejoin:round;stroke-dasharray:0.8,1.32;}
	.st5{clip-path:url(#SVGID_8_);fill:none;stroke:#CCCCCC;stroke-width:0.8;stroke-linejoin:round;stroke-dasharray:0.8,1.32;}
	.st6{clip-path:url(#SVGID_10_);fill:none;stroke:#CCCCCC;stroke-width:0.8;stroke-linejoin:round;stroke-dasharray:0.8,1.32;}
	.st7{clip-path:url(#SVGID_12_);fill:none;stroke:#CCCCCC;stroke-width:0.8;stroke-linejoin:round;stroke-dasharray:0.8,1.32;}
	.st8{clip-path:url(#SVGID_14_);fill:none;stroke:#CCCCCC;stroke-width:0.8;stroke-linejoin:round;stroke-dasharray:0.8,1.32;}
	.st9{clip-path:url(#SVGID_16_);fill:none;stroke:#CCCCCC;stroke-width:0.8;stroke-linejoin:round;stroke-dasharray:0.8,1.32;}
	.st10{clip-path:url(#SVGID_18_);fill:none;stroke:#CCCCCC;stroke-width:0.8;stroke-linejoin:round;stroke-dasharray:0.8,1.32;}
	.st11{clip-path:url(#SVGID_20_);fill:none;stroke:#CCCCCC;stroke-width:0.8;stroke-linejoin:round;stroke-dasharray:0.8,1.32;}
	.st12{clip-path:url(#SVGID_22_);fill:none;stroke:#CCCCCC;stroke-width:0.8;stroke-linejoin:round;stroke-dasharray:0.8,1.32;}
	.st13{clip-path:url(#SVGID_24_);fill:none;stroke:#CCCCCC;stroke-width:0.8;stroke-linejoin:round;stroke-dasharray:0.8,1.32;}
	.st14{clip-path:url(#SVGID_26_);fill:none;stroke:#CCCCCC;stroke-width:0.8;stroke-linejoin:round;stroke-dasharray:0.8,1.32;}
	.st15{clip-path:url(#SVGID_28_);fill:none;stroke:#CCCCCC;stroke-width:0.8;stroke-linejoin:round;stroke-dasharray:0.8,1.32;}
	.st16{clip-path:url(#SVGID_30_);fill:none;stroke:#CCCCCC;stroke-width:0.8;stroke-linejoin:round;stroke-dasharray:0.8,1.32;}
	.st17{fill:none;}
	.st18{clip-path:url(#SVGID_32_);}
	.st19{opacity:0.5;fill:#1F77B4;enable-background:new    ;}
	
		.st20{clip-path:url(#SVGID_34_);fill:none;stroke:#262626;stroke-width:1.5;stroke-linejoin:round;stroke-opacity:0.85;stroke-dasharray:5.55,2.4;}
	.st21{fill:none;stroke:#CCCCCC;stroke-linecap:square;}
</style>
<g id="figure_1">
	<g id="patch_1">
		<path class="st0" d="M0,289.2h570V0H0V289.2z"/>
	</g>
	<g id="axes_1">
		<g id="patch_2">
			<path class="st0" d="M74.3,237.5h452.5V21.6H74.3V237.5z"/>
		</g>
		<g id="matplotlib.axis_1">
			<g id="xtick_1">
				<g id="line2d_1">
					<g>
						<defs>
							<rect id="SVGID_1_" x="74.3" y="21.6" width="452.5" height="215.9"/>
						</defs>
						<clipPath id="SVGID_2_">
							<use xlink:href="#SVGID_1_"  style="overflow:visible;"/>
						</clipPath>
						<path class="st1" d="M127.5,237.5V21.6"/>
					</g>
				</g>
				<g id="line2d_2">
				</g>
				<g id="text_1">
					<g transform="translate(103.519765 252.645458)scale(0.107 -0.107)">
						<g>
							<path id="Roboto-Regular-50" class="st2" d="M220.7,33.6h-46.6v6.5l24.6,27.3c3.6,4.1,6.2,7.5,7.5,10.1
								c1.4,2.6,2.1,5.3,2.1,8c0,3.7-1.1,6.8-3.4,9.1c-2.2,2.4-5.2,3.6-9,3.6c-4.5,0-8-1.3-10.5-3.8c-2.5-2.6-3.7-6.1-3.7-10.7h-9
								c0,6.6,2.1,11.8,6.3,15.9c4.2,4,9.9,6.1,16.9,6.1c6.6,0,11.8-1.7,15.7-5.2c3.8-3.5,5.8-8.1,5.8-13.8c0-7-4.5-15.3-13.4-25
								L185,41h35.7V33.6z"/>
						</g>
						<g>
							<path id="Roboto-Regular-53" class="st2" d="M234.4,69.3l3.6,35.5h36.4v-8.3h-28.8L243.6,77c3.5,2.1,7.4,3.1,11.9,3.1
								c6.5,0,11.6-2.1,15.4-6.4s5.7-10.1,5.7-17.4c0-7.3-2-13.1-5.9-17.3c-4-4.2-9.5-6.3-16.6-6.3c-6.3,0-11.4,1.7-15.4,5.2
								c-4,3.5-6.2,8.3-6.8,14.5h8.5c0.6-4.1,2-7.1,4.3-9.2c2.3-2.1,5.4-3.1,9.3-3.1c4.2,0,7.5,1.4,9.9,4.3
								c2.4,2.9,3.6,6.8,3.6,11.9c0,4.8-1.3,8.6-3.9,11.4c-2.6,2.9-6,4.3-10.3,4.3c-3.9,0-7-0.9-9.3-2.6l-2.4-2L234.4,69.3z"/>
						</g>
					</g>
				</g>
			</g>
			<g id="xtick_2">
				<g id="line2d_3">
					<g>
						<defs>
							<rect id="SVGID_3_" x="74.3" y="21.6" width="452.5" height="215.9"/>
						</defs>
						<clipPath id="SVGID_4_">
							<use xlink:href="#SVGID_3_"  style="overflow:visible;"/>
						</clipPath>
						<path class="st3" d="M182.1,237.5V21.6"/>
					</g>
				</g>
				<g id="line2d_4">
				</g>
				<g id="text_2">
					<g transform="translate(158.129305 252.645458)scale(0.107 -0.107)">
						<g>
							<path id="Roboto-Regular-51" class="st2" d="M187.3,73.6h6.8c4.3,0.1,7.6,1.2,10.1,3.4c2.4,2.2,3.7,5.1,3.7,8.8
								c0,8.3-4.2,12.5-12.5,12.5c-3.9,0-7-1.1-9.3-3.4c-2.3-2.2-3.5-5.2-3.5-8.9h-9c0,5.6,2.1,10.3,6.2,14
								c4.1,3.7,9.4,5.6,15.7,5.6c6.7,0,12-1.8,15.8-5.3c3.8-3.6,5.7-8.5,5.7-14.8c0-3.1-1-6.1-3-9c-2-2.9-4.7-5.1-8.2-6.5
								c3.9-1.2,6.9-3.3,9-6.1c2.1-2.9,3.2-6.4,3.2-10.5c0-6.4-2.1-11.5-6.3-15.2c-4.2-3.7-9.6-5.6-16.3-5.6
								c-6.7,0-12.1,1.8-16.3,5.4c-4.2,3.6-6.3,8.4-6.3,14.3h9.1c0-3.7,1.2-6.7,3.7-9c2.4-2.3,5.7-3.4,9.8-3.4c4.4,0,7.7,1.1,10,3.4
								s3.5,5.6,3.5,9.8c0,4.1-1.3,7.3-3.8,9.5c-2.5,2.2-6.2,3.4-11,3.4h-6.8V73.6z"/>
						</g>
						<g>
							<path id="Roboto-Regular-48" class="st2" d="M274.9,64c0-10.6-1.8-18.4-5.4-23.6c-3.6-5.1-9.3-7.7-16.9-7.7
								c-7.6,0-13.2,2.5-16.8,7.5c-3.6,5-5.5,12.5-5.7,22.5v12c0,10.5,1.8,18.2,5.4,23.3c3.6,5.1,9.3,7.6,17,7.6
								c7.6,0,13.3-2.5,16.9-7.4c3.6-4.9,5.5-12.5,5.6-22.7V64z M265.8,76.3c0,7.7-1.1,13.2-3.2,16.7c-2.1,3.5-5.5,5.3-10.2,5.3
								c-4.6,0-8-1.7-10.1-5.2c-2.1-3.5-3.2-8.8-3.3-16.1V62.5c0-7.7,1.1-13.3,3.3-17c2.2-3.7,5.6-5.5,10.1-5.5
								c4.5,0,7.8,1.7,9.9,5.2c2.2,3.5,3.3,8.9,3.4,16.3V76.3z"/>
						</g>
					</g>
				</g>
			</g>
			<g id="xtick_3">
				<g id="line2d_5">
					<g>
						<defs>
							<rect id="SVGID_5_" x="74.3" y="21.6" width="452.5" height="215.9"/>
						</defs>
						<clipPath id="SVGID_6_">
							<use xlink:href="#SVGID_5_"  style="overflow:visible;"/>
						</clipPath>
						<path class="st4" d="M236.7,237.5V21.6"/>
					</g>
				</g>
				<g id="line2d_6">
				</g>
				<g id="text_3">
					<g transform="translate(212.738844 252.645458)scale(0.107 -0.107)">
						<g>
							<path id="Roboto-Regular-51_1_" class="st2" d="M187.3,73.6h6.8c4.3,0.1,7.6,1.2,10.1,3.4c2.4,2.2,3.7,5.1,3.7,8.8
								c0,8.3-4.2,12.5-12.5,12.5c-3.9,0-7-1.1-9.3-3.4c-2.3-2.2-3.5-5.2-3.5-8.9h-9c0,5.6,2.1,10.3,6.2,14
								c4.1,3.7,9.4,5.6,15.7,5.6c6.7,0,12-1.8,15.8-5.3c3.8-3.6,5.7-8.5,5.7-14.8c0-3.1-1-6.1-3-9c-2-2.9-4.7-5.1-8.2-6.5
								c3.9-1.2,6.9-3.3,9-6.1c2.1-2.9,3.2-6.4,3.2-10.5c0-6.4-2.1-11.5-6.3-15.2c-4.2-3.7-9.6-5.6-16.3-5.6
								c-6.7,0-12.1,1.8-16.3,5.4c-4.2,3.6-6.3,8.4-6.3,14.3h9.1c0-3.7,1.2-6.7,3.7-9c2.4-2.3,5.7-3.4,9.8-3.4c4.4,0,7.7,1.1,10,3.4
								s3.5,5.6,3.5,9.8c0,4.1-1.3,7.3-3.8,9.5c-2.5,2.2-6.2,3.4-11,3.4h-6.8V73.6z"/>
						</g>
						<g>
							<path id="Roboto-Regular-53_1_" class="st2" d="M234.4,69.3l3.6,35.5h36.4v-8.3h-28.8L243.6,77c3.5,2.1,7.4,3.1,11.9,3.1
								c6.5,0,11.6-2.1,15.4-6.4s5.7-10.1,5.7-17.4c0-7.3-2-13.1-5.9-17.3c-4-4.2-9.5-6.3-16.6-6.3c-6.3,0-11.4,1.7-15.4,5.2
								c-4,3.5-6.2,8.3-6.8,14.5h8.5c0.6-4.1,2-7.1,4.3-9.2c2.3-2.1,5.4-3.1,9.3-3.1c4.2,0,7.5,1.4,9.9,4.3
								c2.4,2.9,3.6,6.8,3.6,11.9c0,4.8-1.3,8.6-3.9,11.4c-2.6,2.9-6,4.3-10.3,4.3c-3.9,0-7-0.9-9.3-2.6l-2.4-2L234.4,69.3z"/>
						</g>
					</g>
				</g>
			</g>
			<g id="xtick_4">
				<g id="line2d_7">
					<g>
						<defs>
							<rect id="SVGID_7_" x="74.3" y="21.6" width="452.5" height="215.9"/>
						</defs>
						<clipPath id="SVGID_8_">
							<use xlink:href="#SVGID_7_"  style="overflow:visible;"/>
						</clipPath>
						<path class="st5" d="M291.4,237.5V21.6"/>
					</g>
				</g>
				<g id="line2d_8">
				</g>
				<g id="text_4">
					<g transform="translate(267.348384 252.645458)scale(0.107 -0.107)">
						<g>
							<path id="Roboto-Regular-52" class="st2" d="M212.3,57.5h9.9v-7.4h-9.9V33.6h-9.1v16.5h-32.4v5.3l31.8,49.3h9.6V57.5z
								 M181.1,57.5h22.1v34.9l-1.1-2L181.1,57.5z"/>
						</g>
						<g>
							<path id="Roboto-Regular-48_1_" class="st2" d="M274.9,64c0-10.6-1.8-18.4-5.4-23.6c-3.6-5.1-9.3-7.7-16.9-7.7
								c-7.6,0-13.2,2.5-16.8,7.5s-5.5,12.5-5.7,22.5v12c0,10.5,1.8,18.2,5.4,23.3c3.6,5.1,9.3,7.6,17,7.6c7.6,0,13.3-2.5,16.9-7.4
								c3.6-4.9,5.5-12.5,5.6-22.7V64z M265.8,76.3c0,7.7-1.1,13.2-3.2,16.7c-2.1,3.5-5.5,5.3-10.2,5.3c-4.6,0-8-1.7-10.1-5.2
								c-2.1-3.5-3.2-8.8-3.3-16.1V62.5c0-7.7,1.1-13.3,3.3-17c2.2-3.7,5.6-5.5,10.1-5.5c4.5,0,7.8,1.7,9.9,5.2
								c2.2,3.5,3.3,8.9,3.4,16.3V76.3z"/>
						</g>
					</g>
				</g>
			</g>
			<g id="xtick_5">
				<g id="line2d_9">
					<g>
						<defs>
							<rect id="SVGID_9_" x="74.3" y="21.6" width="452.5" height="215.9"/>
						</defs>
						<clipPath id="SVGID_10_">
							<use xlink:href="#SVGID_9_"  style="overflow:visible;"/>
						</clipPath>
						<path class="st6" d="M346,237.5V21.6"/>
					</g>
				</g>
				<g id="line2d_10">
				</g>
				<g id="text_5">
					<g transform="translate(321.957924 252.645458)scale(0.107 -0.107)">
						<g>
							<path id="Roboto-Regular-52_1_" class="st2" d="M212.3,57.5h9.9v-7.4h-9.9V33.6h-9.1v16.5h-32.4v5.3l31.8,49.3h9.6V57.5z
								 M181.1,57.5h22.1v34.9l-1.1-2L181.1,57.5z"/>
						</g>
						<g>
							<path id="Roboto-Regular-53_2_" class="st2" d="M234.4,69.3l3.6,35.5h36.4v-8.3h-28.8L243.6,77c3.5,2.1,7.4,3.1,11.9,3.1
								c6.5,0,11.6-2.1,15.4-6.4s5.7-10.1,5.7-17.4c0-7.3-2-13.1-5.9-17.3c-4-4.2-9.5-6.3-16.6-6.3c-6.3,0-11.4,1.7-15.4,5.2
								c-4,3.5-6.2,8.3-6.8,14.5h8.5c0.6-4.1,2-7.1,4.3-9.2c2.3-2.1,5.4-3.1,9.3-3.1c4.2,0,7.5,1.4,9.9,4.3
								c2.4,2.9,3.6,6.8,3.6,11.9c0,4.8-1.3,8.6-3.9,11.4c-2.6,2.9-6,4.3-10.3,4.3c-3.9,0-7-0.9-9.3-2.6l-2.4-2L234.4,69.3z"/>
						</g>
					</g>
				</g>
			</g>
			<g id="xtick_6">
				<g id="line2d_11">
					<g>
						<defs>
							<rect id="SVGID_11_" x="74.3" y="21.6" width="452.5" height="215.9"/>
						</defs>
						<clipPath id="SVGID_12_">
							<use xlink:href="#SVGID_11_"  style="overflow:visible;"/>
						</clipPath>
						<path class="st7" d="M400.6,237.5V21.6"/>
					</g>
				</g>
				<g id="line2d_12">
				</g>
				<g id="text_6">
					<g transform="translate(376.567463 252.645458)scale(0.107 -0.107)">
						<g>
							<path id="Roboto-Regular-53_3_" class="st2" d="M178.3,69.3l3.6,35.5h36.4v-8.3h-28.8L187.4,77c3.5,2.1,7.4,3.1,11.9,3.1
								c6.5,0,11.6-2.1,15.4-6.4s5.7-10.1,5.7-17.4c0-7.3-2-13.1-5.9-17.3c-4-4.2-9.5-6.3-16.6-6.3c-6.3,0-11.4,1.7-15.4,5.2
								c-4,3.5-6.2,8.3-6.8,14.5h8.5c0.6-4.1,2-7.1,4.3-9.2c2.3-2.1,5.4-3.1,9.3-3.1c4.2,0,7.5,1.4,9.9,4.3
								c2.4,2.9,3.6,6.8,3.6,11.9c0,4.8-1.3,8.6-3.9,11.4c-2.6,2.9-6,4.3-10.3,4.3c-3.9,0-7-0.9-9.3-2.6l-2.4-2L178.3,69.3z"/>
						</g>
						<g>
							<path id="Roboto-Regular-48_2_" class="st2" d="M274.9,64c0-10.6-1.8-18.4-5.4-23.6c-3.6-5.1-9.3-7.7-16.9-7.7
								c-7.6,0-13.2,2.5-16.8,7.5c-3.6,5-5.5,12.5-5.7,22.5v12c0,10.5,1.8,18.2,5.4,23.3c3.6,5.1,9.3,7.6,17,7.6
								c7.6,0,13.3-2.5,16.9-7.4c3.6-4.9,5.5-12.5,5.6-22.7V64z M265.8,76.3c0,7.7-1.1,13.2-3.2,16.7c-2.1,3.5-5.5,5.3-10.2,5.3
								c-4.6,0-8-1.7-10.1-5.2c-2.1-3.5-3.2-8.8-3.3-16.1V62.5c0-7.7,1.1-13.3,3.3-17c2.2-3.7,5.6-5.5,10.1-5.5
								c4.5,0,7.8,1.7,9.9,5.2c2.2,3.5,3.3,8.9,3.4,16.3V76.3z"/>
						</g>
					</g>
				</g>
			</g>
			<g id="xtick_7">
				<g id="line2d_13">
					<g>
						<defs>
							<rect id="SVGID_13_" x="74.3" y="21.6" width="452.5" height="215.9"/>
						</defs>
						<clipPath id="SVGID_14_">
							<use xlink:href="#SVGID_13_"  style="overflow:visible;"/>
						</clipPath>
						<path class="st8" d="M455.2,237.5V21.6"/>
					</g>
				</g>
				<g id="line2d_14">
				</g>
				<g id="text_7">
					<g transform="translate(431.177003 252.645458)scale(0.107 -0.107)">
						<g>
							<path id="Roboto-Regular-53_4_" class="st2" d="M178.3,69.3l3.6,35.5h36.4v-8.3h-28.8L187.4,77c3.5,2.1,7.4,3.1,11.9,3.1
								c6.5,0,11.6-2.1,15.4-6.4s5.7-10.1,5.7-17.4c0-7.3-2-13.1-5.9-17.3s-9.5-6.3-16.6-6.3c-6.3,0-11.4,1.7-15.4,5.2
								c-4,3.5-6.2,8.3-6.8,14.5h8.5c0.6-4.1,2-7.1,4.3-9.2c2.3-2.1,5.4-3.1,9.3-3.1c4.2,0,7.5,1.4,9.9,4.3
								c2.4,2.9,3.6,6.8,3.6,11.9c0,4.8-1.3,8.6-3.9,11.4c-2.6,2.9-6,4.3-10.3,4.3c-3.9,0-7-0.9-9.3-2.6l-2.4-2L178.3,69.3z"/>
						</g>
						<g>
							<path id="Roboto-Regular-53_5_" class="st2" d="M234.4,69.3l3.6,35.5h36.4v-8.3h-28.8L243.6,77c3.5,2.1,7.4,3.1,11.9,3.1
								c6.5,0,11.6-2.1,15.4-6.4s5.7-10.1,5.7-17.4c0-7.3-2-13.1-5.9-17.3c-4-4.2-9.5-6.3-16.6-6.3c-6.3,0-11.4,1.7-15.4,5.2
								c-4,3.5-6.2,8.3-6.8,14.5h8.5c0.6-4.1,2-7.1,4.3-9.2c2.3-2.1,5.4-3.1,9.3-3.1c4.2,0,7.5,1.4,9.9,4.3
								c2.4,2.9,3.6,6.8,3.6,11.9c0,4.8-1.3,8.6-3.9,11.4c-2.6,2.9-6,4.3-10.3,4.3c-3.9,0-7-0.9-9.3-2.6l-2.4-2L234.4,69.3z"/>
						</g>
					</g>
				</g>
			</g>
			<g id="xtick_8">
				<g id="line2d_15">
					<g>
						<defs>
							<rect id="SVGID_15_" x="74.3" y="21.6" width="452.5" height="215.9"/>
						</defs>
						<clipPath id="SVGID_16_">
							<use xlink:href="#SVGID_15_"  style="overflow:visible;"/>
						</clipPath>
						<path class="st9" d="M509.8,237.5V21.6"/>
					</g>
				</g>
				<g id="line2d_16">
				</g>
				<g id="text_8">
					<g transform="translate(485.786543 252.645458)scale(0.107 -0.107)">
						<g>
							<path id="Roboto-Regular-54" class="st2" d="M209.6,104.8v-7.7h-1.7c-7-0.1-12.6-2.2-16.8-6.3c-4.2-4-6.6-9.7-7.2-17
								c3.8,4.3,8.9,6.4,15.3,6.4c6.2,0,11.1-2.2,14.8-6.5c3.7-4.4,5.5-10,5.5-16.9c0-7.3-2-13.2-6-17.6s-9.3-6.6-16-6.6
								c-6.8,0-12.3,2.6-16.5,7.8s-6.3,12-6.3,20.2v3.5c0,13.1,2.8,23.1,8.4,30c5.6,6.9,13.9,10.5,24.9,10.6H209.6z M197.7,72.8
								c-3.1,0-5.9-0.9-8.5-2.8c-2.6-1.9-4.4-4.2-5.4-7v-3.3c0-5.9,1.3-10.6,4-14.2c2.6-3.6,5.9-5.4,9.9-5.4c4.1,0,7.3,1.5,9.6,4.5
								c2.3,3,3.5,6.9,3.5,11.8c0,4.9-1.2,8.8-3.5,11.8C204.8,71.2,201.6,72.8,197.7,72.8z"/>
						</g>
						<g>
							<path id="Roboto-Regular-48_3_" class="st2" d="M274.9,64c0-10.6-1.8-18.4-5.4-23.6c-3.6-5.1-9.3-7.7-16.9-7.7
								c-7.6,0-13.2,2.5-16.8,7.5s-5.5,12.5-5.7,22.5v12c0,10.5,1.8,18.2,5.4,23.3c3.6,5.1,9.3,7.6,17,7.6c7.6,0,13.3-2.5,16.9-7.4
								c3.6-4.9,5.5-12.5,5.6-22.7V64z M265.8,76.3c0,7.7-1.1,13.2-3.2,16.7c-2.1,3.5-5.5,5.3-10.2,5.3c-4.6,0-8-1.7-10.1-5.2
								c-2.1-3.5-3.2-8.8-3.3-16.1V62.5c0-7.7,1.1-13.3,3.3-17c2.2-3.7,5.6-5.5,10.1-5.5c4.5,0,7.8,1.7,9.9,5.2
								c2.2,3.5,3.3,8.9,3.4,16.3V76.3z"/>
						</g>
					</g>
				</g>
			</g>
			<g id="text_9">
				<g transform="translate(242.790979 268.445145)scale(0.12 -0.12)">
					<g>
						<path id="Roboto-Regular-71" class="st2" d="M210.8,39.3c-2.4-3.4-5.8-6-10.1-7.8c-4.3-1.7-9.3-2.6-15.1-2.6
							c-5.8,0-10.9,1.4-15.4,4.1c-4.5,2.7-8,6.6-10.4,11.6c-2.4,5-3.7,10.8-3.8,17.4v6.2c0,10.7,2.5,19,7.5,24.9s12,8.8,21.1,8.8
							c7.4,0,13.4-1.9,17.9-5.7c4.5-3.8,7.3-9.2,8.3-16.1h-9.4c-1.8,9.4-7.4,14.1-16.8,14.1c-6.3,0-11.1-2.2-14.3-6.6
							c-3.2-4.4-4.9-10.8-4.9-19.2v-5.8c0-8,1.8-14.3,5.5-19c3.6-4.7,8.6-7,14.8-7c3.5,0,6.6,0.4,9.2,1.2c2.6,0.8,4.8,2.1,6.5,4v16
							H185v7.6h25.8V39.3z"/>
					</g>
					<g>
						<path id="Roboto-Regular-67" class="st2" d="M278.7,52.6c-0.9-7.5-3.7-13.3-8.3-17.4c-4.7-4.1-10.9-6.1-18.6-6.1
							c-8.4,0-15.1,3-20.2,9c-5.1,6-7.6,14.1-7.6,24.2v6.8c0,6.6,1.2,12.4,3.5,17.4c2.4,5,5.7,8.9,10,11.6c4.3,2.7,9.3,4,15,4
							c7.6,0,13.6-2.1,18.2-6.3c4.6-4.2,7.2-10.1,8-17.5h-9.4c-0.8,5.7-2.6,9.8-5.3,12.3c-2.7,2.5-6.5,3.8-11.4,3.8
							c-6,0-10.7-2.2-14.1-6.6c-3.4-4.4-5.1-10.7-5.1-18.9v-6.9c0-7.7,1.6-13.9,4.8-18.4c3.2-4.6,7.7-6.8,13.5-6.8
							c5.2,0,9.2,1.2,12,3.5c2.8,2.4,4.6,6.5,5.5,12.3H278.7z"/>
					</g>
					<g>
						<path id="Roboto-Regular-32" class="st2" d="M283.2,30"/>
					</g>
					<g>
						<path id="Roboto-Regular-99" class="st2" d="M336,36.4c3.2,0,6,1,8.4,2.9c2.4,2,3.8,4.4,4,7.3h8.5c-0.2-3-1.2-5.9-3.1-8.7
							c-1.9-2.7-4.5-4.9-7.7-6.5C343,29.8,339.6,29,336,29c-7.2,0-12.9,2.4-17.2,7.2c-4.2,4.8-6.4,11.4-6.4,19.7v1.5
							c0,5.1,0.9,9.7,2.8,13.7c1.9,4,4.6,7.1,8.1,9.3c3.5,2.2,7.7,3.3,12.5,3.3c5.9,0,10.8-1.8,14.8-5.3c3.9-3.5,6-8.1,6.3-13.8
							h-8.5c-0.3,3.4-1.6,6.2-3.9,8.4c-2.3,2.2-5.2,3.3-8.6,3.3c-4.6,0-8.2-1.7-10.7-5c-2.5-3.3-3.8-8.1-3.8-14.3v-1.7
							c0-6.1,1.3-10.8,3.8-14.1C327.8,38,331.3,36.4,336,36.4z"/>
					</g>
					<g>
						<path id="Roboto-Regular-111" class="st2" d="M364.7,56.9c0,5.2,1,9.8,3,14c2,4.1,4.9,7.3,8.5,9.6c3.6,2.3,7.8,3.4,12.4,3.4
							c7.2,0,13-2.5,17.5-7.5c4.4-5,6.7-11.6,6.7-19.9v-0.6c0-5.1-1-9.8-3-13.8c-2-4.1-4.8-7.3-8.5-9.5c-3.7-2.3-7.9-3.4-12.6-3.4
							c-7.2,0-13,2.5-17.4,7.5c-4.4,5-6.7,11.6-6.7,19.8V56.9z M373.8,55.8c0-5.9,1.4-10.6,4.1-14.1s6.4-5.3,10.9-5.3
							c4.6,0,8.2,1.8,10.9,5.4c2.7,3.6,4,8.6,4,15.1c0,5.8-1.4,10.5-4.1,14.1c-2.8,3.6-6.4,5.4-11,5.4c-4.5,0-8.1-1.8-10.8-5.3
							C375.2,67.5,373.8,62.4,373.8,55.8z"/>
					</g>
					<g>
						<path id="Roboto-Regular-110" class="st2" d="M432.7,82.8l0.3-6.6c4,5.1,9.3,7.6,15.8,7.6c11.2,0,16.8-6.3,16.9-18.9V30h-9v35
							c0,3.8-0.9,6.6-2.6,8.4c-1.7,1.8-4.4,2.7-8,2.7c-2.9,0-5.5-0.8-7.7-2.3c-2.2-1.6-3.9-3.6-5.2-6.2V30h-9v52.8H432.7z"/>
					</g>
					<g>
						<path id="Roboto-Regular-116" class="st2" d="M491.6,95.6V82.8h9.9v-7h-9.9V43.1c0-2.1,0.4-3.7,1.3-4.8
							c0.9-1.1,2.4-1.6,4.5-1.6c1,0,2.5,0.2,4.3,0.6V30c-2.4-0.7-4.7-1-6.9-1c-4,0-7.1,1.2-9.1,3.7c-2.1,2.4-3.1,5.9-3.1,10.4v32.8
							h-9.6v7h9.6v12.8H491.6z"/>
					</g>
					<g>
						<path id="Roboto-Regular-101" class="st2" d="M533.9,29c-7.2,0-13,2.4-17.5,7.1c-4.5,4.7-6.7,11-6.7,18.9v1.7
							c0,5.2,1,9.9,3,14c2,4.1,4.8,7.3,8.4,9.7c3.6,2.3,7.5,3.5,11.7,3.5c6.9,0,12.2-2.3,16-6.8c3.8-4.5,5.7-11,5.7-19.4v-3.8h-35.8
							c0.1-5.2,1.6-9.4,4.6-12.6c2.9-3.2,6.6-4.8,11.1-4.8c3.2,0,5.9,0.7,8.1,2c2.2,1.3,4.2,3,5.8,5.2l5.5-4.3
							C549.4,32.4,542.8,29,533.9,29z M532.8,76.4c-3.6,0-6.7-1.3-9.2-4c-2.5-2.7-4-6.4-4.6-11.2h26.5v0.7
							c-0.3,4.6-1.5,8.1-3.7,10.7C539.6,75.1,536.6,76.4,532.8,76.4z"/>
					</g>
					<g>
						<path id="Roboto-Regular-110_1_" class="st2" d="M573.5,82.8l0.3-6.6c4,5.1,9.3,7.6,15.8,7.6c11.2,0,16.8-6.3,16.9-18.9V30h-9
							v35c0,3.8-0.9,6.6-2.6,8.4c-1.7,1.8-4.4,2.7-8,2.7c-2.9,0-5.5-0.8-7.7-2.3c-2.2-1.6-3.9-3.6-5.2-6.2V30h-9v52.8H573.5z"/>
					</g>
					<g>
						<path id="Roboto-Regular-116_1_" class="st2" d="M632.4,95.6V82.8h9.9v-7h-9.9V43.1c0-2.1,0.4-3.7,1.3-4.8
							c0.9-1.1,2.4-1.6,4.5-1.6c1,0,2.5,0.2,4.3,0.6V30c-2.4-0.7-4.7-1-6.9-1c-4,0-7.1,1.2-9.1,3.7c-2.1,2.4-3.1,5.9-3.1,10.4v32.8
							h-9.6v7h9.6v12.8H632.4z"/>
					</g>
					<g>
						<path id="Roboto-Regular-32_1_" class="st2" d="M646,30"/>
					</g>
					<g>
						<path id="Roboto-Regular-40" class="st2" d="M677.3,58.9c0,7.4,1,14.4,3,21.2c2,6.8,4.9,12.9,8.8,18.5
							c3.9,5.5,8,9.4,12.2,11.7l1.9-6c-4.8-3.6-8.7-9.2-11.7-16.7c-3-7.5-4.7-15.9-5-25.1l0-4.2c0-12.6,2.3-23.5,6.9-32.7
							c2.8-5.5,6.1-9.9,9.9-13L701.2,7c-4.3,2.4-8.5,6.4-12.4,12.1C681.1,30.2,677.3,43.5,677.3,58.9z"/>
					</g>
					<g>
						<path id="Roboto-Regular-37" class="st2" d="M710.1,87.4c0,4.3,1.4,7.8,4.1,10.5s6.2,4.2,10.5,4.2c4.3,0,7.8-1.4,10.5-4.2
							c2.7-2.8,4-6.4,4-10.8v-3.5c0-4.3-1.4-7.8-4.1-10.5s-6.2-4.1-10.4-4.1c-4.2,0-7.7,1.4-10.5,4.1c-2.8,2.7-4.1,6.3-4.1,10.9
							V87.4z M716.8,83.7c0-2.5,0.7-4.6,2.1-6.3c1.4-1.6,3.4-2.5,5.8-2.5c2.3,0,4.2,0.8,5.6,2.4c1.4,1.6,2.1,3.8,2.1,6.5v3.6
							c0,2.5-0.7,4.6-2.1,6.3c-1.4,1.7-3.3,2.5-5.7,2.5c-2.4,0-4.3-0.8-5.7-2.5c-1.4-1.7-2.1-3.8-2.1-6.5V83.7z M744.7,47.4
							c0,4.3,1.4,7.8,4.1,10.5s6.2,4.1,10.5,4.1s7.8-1.4,10.5-4.1c2.7-2.7,4.1-6.4,4.1-10.9v-3.5c0-4.3-1.4-7.8-4.1-10.5
							c-2.7-2.8-6.2-4.1-10.4-4.1c-4.2,0-7.7,1.4-10.5,4.1c-2.8,2.7-4.1,6.3-4.1,10.9V47.4z M751.4,43.6c0-2.6,0.7-4.7,2.1-6.3
							c1.4-1.6,3.4-2.5,5.8-2.5c2.3,0,4.2,0.8,5.6,2.4c1.4,1.6,2.1,3.8,2.1,6.6v3.6c0,2.6-0.7,4.7-2.1,6.3s-3.3,2.4-5.7,2.4
							c-2.3,0-4.2-0.8-5.6-2.4c-1.4-1.6-2.2-3.8-2.2-6.5V43.6z M726.8,35.4l-5.1,3.2l34.7,55.6l5.1-3.2L726.8,35.4z"/>
					</g>
					<g>
						<path id="Roboto-Regular-41" class="st2" d="M805.9,58.4c0-7.3-1-14.2-2.9-20.9s-4.8-12.8-8.8-18.4c-3.9-5.6-8-9.6-12.3-12
							l-1.9,5.5c5,3.8,9,9.8,12.1,17.9c3,8.1,4.6,17.1,4.7,26.9V59c0,6.8-0.7,13.2-2.2,19.1c-1.4,5.9-3.4,11.2-6,15.8
							c-2.6,4.7-5.4,8.3-8.6,10.9l1.9,5.5c4.3-2.4,8.4-6.3,12.3-11.9c3.9-5.6,6.8-11.7,8.8-18.4C804.9,73.2,805.9,66,805.9,58.4z"/>
					</g>
				</g>
			</g>
		</g>
		<g id="matplotlib.axis_2">
			<g id="ytick_1">
				<g id="line2d_17">
					<g>
						<defs>
							<rect id="SVGID_17_" x="74.3" y="21.6" width="452.5" height="215.9"/>
						</defs>
						<clipPath id="SVGID_18_">
							<use xlink:href="#SVGID_17_"  style="overflow:visible;"/>
						</clipPath>
						<path class="st10" d="M74.3,237.5h452.5"/>
					</g>
				</g>
				<g id="line2d_18">
				</g>
				<g id="text_10">
					<g transform="translate(46.828094 245.132958)scale(0.107 -0.107)">
						<g>
							<path id="Roboto-Regular-48_4_" class="st2" d="M218.7,64c0-10.6-1.8-18.4-5.4-23.6c-3.6-5.1-9.3-7.7-16.9-7.7
								c-7.6,0-13.2,2.5-16.8,7.5c-3.6,5-5.5,12.5-5.7,22.5v12c0,10.5,1.8,18.2,5.4,23.3c3.6,5.1,9.3,7.6,17,7.6
								c7.6,0,13.3-2.5,16.9-7.4c3.6-4.9,5.5-12.5,5.6-22.7V64z M209.7,76.3c0,7.7-1.1,13.2-3.2,16.7c-2.1,3.5-5.5,5.3-10.2,5.3
								c-4.6,0-8-1.7-10.1-5.2c-2.1-3.5-3.2-8.8-3.3-16.1V62.5c0-7.7,1.1-13.3,3.3-17c2.2-3.7,5.6-5.5,10.1-5.5
								c4.5,0,7.8,1.7,9.9,5.2c2.2,3.5,3.3,8.9,3.4,16.3V76.3z"/>
						</g>
					</g>
				</g>
			</g>
			<g id="ytick_2">
				<g id="line2d_19">
					<g>
						<defs>
							<rect id="SVGID_19_" x="74.3" y="21.6" width="452.5" height="215.9"/>
						</defs>
						<clipPath id="SVGID_20_">
							<use xlink:href="#SVGID_19_"  style="overflow:visible;"/>
						</clipPath>
						<path class="st11" d="M74.3,203.8h452.5"/>
					</g>
				</g>
				<g id="line2d_20">
				</g>
				<g id="text_11">
					<g transform="translate(40.819375 211.395386)scale(0.107 -0.107)">
						<g>
							<path id="Roboto-Regular-49" class="st2" d="M203.8,33.6h-9.1v60.2l-18.2-6.7v8.2l25.9,9.7h1.4V33.6z"/>
						</g>
						<g>
							<path id="Roboto-Regular-48_5_" class="st2" d="M274.9,64c0-10.6-1.8-18.4-5.4-23.6c-3.6-5.1-9.3-7.7-16.9-7.7
								c-7.6,0-13.2,2.5-16.8,7.5c-3.6,5-5.5,12.5-5.7,22.5v12c0,10.5,1.8,18.2,5.4,23.3c3.6,5.1,9.3,7.6,17,7.6
								c7.6,0,13.3-2.5,16.9-7.4c3.6-4.9,5.5-12.5,5.6-22.7V64z M265.8,76.3c0,7.7-1.1,13.2-3.2,16.7c-2.1,3.5-5.5,5.3-10.2,5.3
								c-4.6,0-8-1.7-10.1-5.2c-2.1-3.5-3.2-8.8-3.3-16.1V62.5c0-7.7,1.1-13.3,3.3-17c2.2-3.7,5.6-5.5,10.1-5.5
								c4.5,0,7.8,1.7,9.9,5.2c2.2,3.5,3.3,8.9,3.4,16.3V76.3z"/>
						</g>
					</g>
				</g>
			</g>
			<g id="ytick_3">
				<g id="line2d_21">
					<g>
						<defs>
							<rect id="SVGID_21_" x="74.3" y="21.6" width="452.5" height="215.9"/>
						</defs>
						<clipPath id="SVGID_22_">
							<use xlink:href="#SVGID_21_"  style="overflow:visible;"/>
						</clipPath>
						<path class="st12" d="M74.3,170h452.5"/>
					</g>
				</g>
				<g id="line2d_22">
				</g>
				<g id="text_12">
					<g transform="translate(40.819375 177.657815)scale(0.107 -0.107)">
						<g>
							<path id="Roboto-Regular-50_1_" class="st2" d="M220.7,33.6h-46.6v6.5l24.6,27.3c3.6,4.1,6.2,7.5,7.5,10.1
								c1.4,2.6,2.1,5.3,2.1,8c0,3.7-1.1,6.8-3.4,9.1c-2.2,2.4-5.2,3.6-9,3.6c-4.5,0-8-1.3-10.5-3.8c-2.5-2.6-3.7-6.1-3.7-10.7h-9
								c0,6.6,2.1,11.8,6.3,15.9c4.2,4,9.9,6.1,16.9,6.1c6.6,0,11.8-1.7,15.7-5.2c3.8-3.5,5.8-8.1,5.8-13.8c0-7-4.5-15.3-13.4-25
								L185,41h35.7V33.6z"/>
						</g>
						<g>
							<path id="Roboto-Regular-48_6_" class="st2" d="M274.9,64c0-10.6-1.8-18.4-5.4-23.6c-3.6-5.1-9.3-7.7-16.9-7.7
								c-7.6,0-13.2,2.5-16.8,7.5c-3.6,5-5.5,12.5-5.7,22.5v12c0,10.5,1.8,18.2,5.4,23.3c3.6,5.1,9.3,7.6,17,7.6
								c7.6,0,13.3-2.5,16.9-7.4c3.6-4.9,5.5-12.5,5.6-22.7V64z M265.8,76.3c0,7.7-1.1,13.2-3.2,16.7c-2.1,3.5-5.5,5.3-10.2,5.3
								c-4.6,0-8-1.7-10.1-5.2c-2.1-3.5-3.2-8.8-3.3-16.1V62.5c0-7.7,1.1-13.3,3.3-17c2.2-3.7,5.6-5.5,10.1-5.5
								c4.5,0,7.8,1.7,9.9,5.2c2.2,3.5,3.3,8.9,3.4,16.3V76.3z"/>
						</g>
					</g>
				</g>
			</g>
			<g id="ytick_4">
				<g id="line2d_23">
					<g>
						<defs>
							<rect id="SVGID_23_" x="74.3" y="21.6" width="452.5" height="215.9"/>
						</defs>
						<clipPath id="SVGID_24_">
							<use xlink:href="#SVGID_23_"  style="overflow:visible;"/>
						</clipPath>
						<path class="st13" d="M74.3,136.3h452.5"/>
					</g>
				</g>
				<g id="line2d_24">
				</g>
				<g id="text_13">
					<g transform="translate(40.819375 143.920243)scale(0.107 -0.107)">
						<g>
							<path id="Roboto-Regular-51_2_" class="st2" d="M187.3,73.6h6.8c4.3,0.1,7.6,1.2,10.1,3.4c2.4,2.2,3.7,5.1,3.7,8.8
								c0,8.3-4.2,12.5-12.5,12.5c-3.9,0-7-1.1-9.3-3.4c-2.3-2.2-3.5-5.2-3.5-8.9h-9c0,5.6,2.1,10.3,6.2,14
								c4.1,3.7,9.4,5.6,15.7,5.6c6.7,0,12-1.8,15.8-5.3c3.8-3.6,5.7-8.5,5.7-14.8c0-3.1-1-6.1-3-9c-2-2.9-4.7-5.1-8.2-6.5
								c3.9-1.2,6.9-3.3,9-6.1c2.1-2.9,3.2-6.4,3.2-10.5c0-6.4-2.1-11.5-6.3-15.2c-4.2-3.7-9.6-5.6-16.3-5.6
								c-6.7,0-12.1,1.8-16.3,5.4c-4.2,3.6-6.3,8.4-6.3,14.3h9.1c0-3.7,1.2-6.7,3.7-9c2.4-2.3,5.7-3.4,9.8-3.4c4.4,0,7.7,1.1,10,3.4
								s3.5,5.6,3.5,9.8c0,4.1-1.3,7.3-3.8,9.5c-2.5,2.2-6.2,3.4-11,3.4h-6.8V73.6z"/>
						</g>
						<g>
							<path id="Roboto-Regular-48_7_" class="st2" d="M274.9,64c0-10.6-1.8-18.4-5.4-23.6c-3.6-5.1-9.3-7.7-16.9-7.7
								c-7.6,0-13.2,2.5-16.8,7.5c-3.6,5-5.5,12.5-5.7,22.5v12c0,10.5,1.8,18.2,5.4,23.3c3.6,5.1,9.3,7.6,17,7.6
								c7.6,0,13.3-2.5,16.9-7.4c3.6-4.9,5.5-12.5,5.6-22.7V64z M265.8,76.3c0,7.7-1.1,13.2-3.2,16.7c-2.1,3.5-5.5,5.3-10.2,5.3
								c-4.6,0-8-1.7-10.1-5.2c-2.1-3.5-3.2-8.8-3.3-16.1V62.5c0-7.7,1.1-13.3,3.3-17c2.2-3.7,5.6-5.5,10.1-5.5
								c4.5,0,7.8,1.7,9.9,5.2c2.2,3.5,3.3,8.9,3.4,16.3V76.3z"/>
						</g>
					</g>
				</g>
			</g>
			<g id="ytick_5">
				<g id="line2d_25">
					<g>
						<defs>
							<rect id="SVGID_25_" x="74.3" y="21.6" width="452.5" height="215.9"/>
						</defs>
						<clipPath id="SVGID_26_">
							<use xlink:href="#SVGID_25_"  style="overflow:visible;"/>
						</clipPath>
						<path class="st14" d="M74.3,102.6h452.5"/>
					</g>
				</g>
				<g id="line2d_26">
				</g>
				<g id="text_14">
					<g transform="translate(40.819375 110.182672)scale(0.107 -0.107)">
						<g>
							<path id="Roboto-Regular-52_2_" class="st2" d="M212.3,57.5h9.9v-7.4h-9.9V33.6h-9.1v16.5h-32.4v5.3l31.8,49.3h9.6V57.5z
								 M181.1,57.5h22.1v34.9l-1.1-2L181.1,57.5z"/>
						</g>
						<g>
							<path id="Roboto-Regular-48_8_" class="st2" d="M274.9,64c0-10.6-1.8-18.4-5.4-23.6c-3.6-5.1-9.3-7.7-16.9-7.7
								c-7.6,0-13.2,2.5-16.8,7.5c-3.6,5-5.5,12.5-5.7,22.5v12c0,10.5,1.8,18.2,5.4,23.3c3.6,5.1,9.3,7.6,17,7.6
								c7.6,0,13.3-2.5,16.9-7.4c3.6-4.9,5.5-12.5,5.6-22.7V64z M265.8,76.3c0,7.7-1.1,13.2-3.2,16.7c-2.1,3.5-5.5,5.3-10.2,5.3
								c-4.6,0-8-1.7-10.1-5.2c-2.1-3.5-3.2-8.8-3.3-16.1V62.5c0-7.7,1.1-13.3,3.3-17c2.2-3.7,5.6-5.5,10.1-5.5
								c4.5,0,7.8,1.7,9.9,5.2c2.2,3.5,3.3,8.9,3.4,16.3V76.3z"/>
						</g>
					</g>
				</g>
			</g>
			<g id="ytick_6">
				<g id="line2d_27">
					<g>
						<defs>
							<rect id="SVGID_27_" x="74.3" y="21.6" width="452.5" height="215.9"/>
						</defs>
						<clipPath id="SVGID_28_">
							<use xlink:href="#SVGID_27_"  style="overflow:visible;"/>
						</clipPath>
						<path class="st15" d="M74.3,68.8h452.5"/>
					</g>
				</g>
				<g id="line2d_28">
				</g>
				<g id="text_15">
					<g transform="translate(40.819375 76.4451)scale(0.107 -0.107)">
						<g>
							<path id="Roboto-Regular-53_6_" class="st2" d="M178.3,69.3l3.6,35.5h36.4v-8.3h-28.8L187.4,77c3.5,2.1,7.4,3.1,11.9,3.1
								c6.5,0,11.6-2.1,15.4-6.4s5.7-10.1,5.7-17.4c0-7.3-2-13.1-5.9-17.3c-4-4.2-9.5-6.3-16.6-6.3c-6.3,0-11.4,1.7-15.4,5.2
								c-4,3.5-6.2,8.3-6.8,14.5h8.5c0.6-4.1,2-7.1,4.3-9.2c2.3-2.1,5.4-3.1,9.3-3.1c4.2,0,7.5,1.4,9.9,4.3
								c2.4,2.9,3.6,6.8,3.6,11.9c0,4.8-1.3,8.6-3.9,11.4c-2.6,2.9-6,4.3-10.3,4.3c-3.9,0-7-0.9-9.3-2.6l-2.4-2L178.3,69.3z"/>
						</g>
						<g>
							<path id="Roboto-Regular-48_9_" class="st2" d="M274.9,64c0-10.6-1.8-18.4-5.4-23.6c-3.6-5.1-9.3-7.7-16.9-7.7
								c-7.6,0-13.2,2.5-16.8,7.5c-3.6,5-5.5,12.5-5.7,22.5v12c0,10.5,1.8,18.2,5.4,23.3c3.6,5.1,9.3,7.6,17,7.6
								c7.6,0,13.3-2.5,16.9-7.4c3.6-4.9,5.5-12.5,5.6-22.7V64z M265.8,76.3c0,7.7-1.1,13.2-3.2,16.7c-2.1,3.5-5.5,5.3-10.2,5.3
								c-4.6,0-8-1.7-10.1-5.2c-2.1-3.5-3.2-8.8-3.3-16.1V62.5c0-7.7,1.1-13.3,3.3-17c2.2-3.7,5.6-5.5,10.1-5.5
								c4.5,0,7.8,1.7,9.9,5.2c2.2,3.5,3.3,8.9,3.4,16.3V76.3z"/>
						</g>
					</g>
				</g>
			</g>
			<g id="ytick_7">
				<g id="line2d_29">
					<g>
						<defs>
							<rect id="SVGID_29_" x="74.3" y="21.6" width="452.5" height="215.9"/>
						</defs>
						<clipPath id="SVGID_30_">
							<use xlink:href="#SVGID_29_"  style="overflow:visible;"/>
						</clipPath>
						<path class="st16" d="M74.3,35.1h452.5"/>
					</g>
				</g>
				<g id="line2d_30">
				</g>
				<g id="text_16">
					<g transform="translate(40.819375 42.707529)scale(0.107 -0.107)">
						<g>
							<path id="Roboto-Regular-54_1_" class="st2" d="M209.6,104.8v-7.7h-1.7c-7-0.1-12.6-2.2-16.8-6.3c-4.2-4-6.6-9.7-7.2-17
								c3.8,4.3,8.9,6.4,15.3,6.4c6.2,0,11.1-2.2,14.8-6.5c3.7-4.4,5.5-10,5.5-16.9c0-7.3-2-13.2-6-17.6c-4-4.4-9.3-6.6-16-6.6
								c-6.8,0-12.3,2.6-16.5,7.8c-4.2,5.2-6.3,12-6.3,20.2v3.5c0,13.1,2.8,23.1,8.4,30c5.6,6.9,13.9,10.5,24.9,10.6H209.6z
								 M197.7,72.8c-3.1,0-5.9-0.9-8.5-2.8c-2.6-1.9-4.4-4.2-5.4-7v-3.3c0-5.9,1.3-10.6,4-14.2c2.6-3.6,5.9-5.4,9.9-5.4
								c4.1,0,7.3,1.5,9.6,4.5c2.3,3,3.5,6.9,3.5,11.8c0,4.9-1.2,8.8-3.5,11.8C204.8,71.2,201.6,72.8,197.7,72.8z"/>
						</g>
						<g>
							<path id="Roboto-Regular-48_10_" class="st2" d="M274.9,64c0-10.6-1.8-18.4-5.4-23.6c-3.6-5.1-9.3-7.7-16.9-7.7
								c-7.6,0-13.2,2.5-16.8,7.5c-3.6,5-5.5,12.5-5.7,22.5v12c0,10.5,1.8,18.2,5.4,23.3c3.6,5.1,9.3,7.6,17,7.6
								c7.6,0,13.3-2.5,16.9-7.4c3.6-4.9,5.5-12.5,5.6-22.7V64z M265.8,76.3c0,7.7-1.1,13.2-3.2,16.7c-2.1,3.5-5.5,5.3-10.2,5.3
								c-4.6,0-8-1.7-10.1-5.2c-2.1-3.5-3.2-8.8-3.3-16.1V62.5c0-7.7,1.1-13.3,3.3-17c2.2-3.7,5.6-5.5,10.1-5.5
								c4.5,0,7.8,1.7,9.9,5.2c2.2,3.5,3.3,8.9,3.4,16.3V76.3z"/>
						</g>
					</g>
				</g>
			</g>
			<g id="text_17">
				<g transform="translate(34.32375 182.804604)rotate(-90)scale(0.12 -0.12)">
					<g>
						<path id="Roboto-Regular-78" class="st2" d="M92.9-150h-9.4L47.7-95.2V-150h-9.4v71.1h9.4l35.9-55v55h9.3V-150z"/>
					</g>
					<g>
						<path id="Roboto-Regular-117" class="st2" d="M140.7-144.8c-3.5-4.1-8.7-6.2-15.5-6.2c-5.6,0-9.9,1.6-12.9,4.9
							c-2.9,3.3-4.4,8.1-4.5,14.5v34.4h9v-34.1c0-8,3.3-12,9.8-12c6.9,0,11.5,2.6,13.8,7.7v38.4h9V-150h-8.6L140.7-144.8z"/>
					</g>
					<g>
						<path id="Roboto-Regular-109" class="st2" d="M171.7-97.2l0.3-5.9c3.9,4.6,9.1,6.8,15.7,6.8c7.4,0,12.4-2.8,15.1-8.5
							c1.8,2.5,4,4.6,6.8,6.2c2.8,1.6,6.2,2.3,10,2.3c11.6,0,17.5-6.1,17.7-18.4V-150h-9v34.9c0,3.8-0.9,6.6-2.6,8.5
							c-1.7,1.9-4.6,2.8-8.7,2.8c-3.4,0-6.1-1-8.4-3c-2.2-2-3.5-4.7-3.8-8.1V-150h-9.1v34.6c0,7.7-3.8,11.5-11.3,11.5
							c-5.9,0-10-2.5-12.2-7.6V-150h-9v52.8H171.7z"/>
					</g>
					<g>
						<path id="Roboto-Regular-98" class="st2" d="M295.6-124.2c0-8.1-1.9-14.6-5.6-19.5c-3.7-4.9-8.7-7.3-14.9-7.3
							c-6.7,0-11.8,2.4-15.5,7.1l-0.4-6.1h-8.3v75h9v-28c3.6,4.5,8.7,6.8,15.1,6.8c6.4,0,11.5-2.4,15.1-7.3
							c3.7-4.8,5.5-11.5,5.5-19.9V-124.2z M286.6-123.1c0,6.1-1.2,10.9-3.6,14.3c-2.4,3.4-5.8,5-10.3,5c-6,0-10.2-2.8-12.8-8.3V-135
							c2.8-5.5,7.1-8.3,12.9-8.3c4.3,0,7.7,1.7,10.1,5C285.4-134.9,286.6-129.9,286.6-123.1z"/>
					</g>
					<g>
						<path id="Roboto-Regular-101_1_" class="st2" d="M328.9-151c-7.2,0-13,2.4-17.5,7.1c-4.5,4.7-6.7,11-6.7,18.9v1.7
							c0,5.2,1,9.9,3,14c2,4.1,4.8,7.3,8.4,9.7c3.6,2.3,7.5,3.5,11.7,3.5c6.9,0,12.2-2.3,16-6.8c3.8-4.5,5.7-11,5.7-19.4v-3.8h-35.8
							c0.1-5.2,1.6-9.4,4.6-12.6c2.9-3.2,6.6-4.8,11.1-4.8c3.2,0,5.9,0.7,8.1,2c2.2,1.3,4.2,3,5.8,5.2l5.5-4.3
							C344.4-147.6,337.8-151,328.9-151z M327.8-103.6c-3.6,0-6.7-1.3-9.2-4c-2.5-2.7-4-6.4-4.6-11.2h26.5v0.7
							c-0.3,4.6-1.5,8.1-3.7,10.7C334.6-104.9,331.6-103.6,327.8-103.6z"/>
					</g>
					<g>
						<path id="Roboto-Regular-114" class="st2" d="M385.5-105.3c-1.4,0.2-2.8,0.3-4.4,0.3c-5.9,0-9.9-2.5-12.1-7.6V-150h-9v52.8
							h8.8l0.1-6.1c3,4.7,7.2,7.1,12.6,7.1c1.8,0,3.1-0.2,4-0.7V-105.3z"/>
					</g>
					<g>
						<path id="Roboto-Regular-32_2_" class="st2" d="M387-150"/>
					</g>
					<g>
						<path id="Roboto-Regular-111_1_" class="st2" d="M416.2-123.1c0,5.2,1,9.8,3,14c2,4.1,4.9,7.3,8.5,9.6
							c3.6,2.3,7.8,3.4,12.4,3.4c7.2,0,13-2.5,17.5-7.5c4.4-5,6.7-11.6,6.7-19.9v-0.6c0-5.1-1-9.8-3-13.8c-2-4.1-4.8-7.3-8.5-9.5
							c-3.7-2.3-7.9-3.4-12.6-3.4c-7.2,0-13,2.5-17.4,7.5c-4.4,5-6.7,11.6-6.7,19.8V-123.1z M425.3-124.2c0-5.9,1.4-10.6,4.1-14.1
							s6.4-5.3,10.9-5.3c4.6,0,8.2,1.8,10.9,5.4c2.7,3.6,4,8.6,4,15.1c0,5.8-1.4,10.5-4.1,14.1c-2.8,3.6-6.4,5.4-11,5.4
							c-4.5,0-8.1-1.8-10.8-5.3C426.6-112.5,425.3-117.6,425.3-124.2z"/>
					</g>
					<g>
						<path id="Roboto-Regular-102" class="st2" d="M480-150v45.8h-8.3v7h8.3v5.4c0,5.7,1.5,10,4.5,13.1c3,3.1,7.3,4.6,12.8,4.6
							c2.1,0,4.2-0.3,6.2-0.8l-0.5-7.3c-1.5,0.3-3.2,0.4-4.9,0.4c-2.9,0-5.2-0.9-6.8-2.6s-2.4-4.2-2.4-7.3v-5.6h11.3v-7h-11.3V-150
							H480z"/>
					</g>
					<g>
						<path id="Roboto-Regular-32_3_" class="st2" d="M503.5-150"/>
					</g>
					<g>
						<path id="Roboto-Regular-99_1_" class="st2" d="M556.3-143.6c3.2,0,6,1,8.4,2.9c2.4,2,3.8,4.4,4,7.3h8.5
							c-0.2-3-1.2-5.9-3.1-8.7c-1.9-2.7-4.5-4.9-7.7-6.5c-3.2-1.6-6.6-2.4-10.2-2.4c-7.2,0-12.9,2.4-17.2,7.2
							c-4.2,4.8-6.4,11.4-6.4,19.7v1.5c0,5.1,0.9,9.7,2.8,13.7c1.9,4,4.6,7.1,8.1,9.3c3.5,2.2,7.7,3.3,12.5,3.3
							c5.9,0,10.8-1.8,14.8-5.3c3.9-3.5,6-8.1,6.3-13.8h-8.5c-0.3,3.4-1.6,6.2-3.9,8.4c-2.3,2.2-5.2,3.3-8.6,3.3
							c-4.6,0-8.2-1.7-10.7-5c-2.5-3.3-3.8-8.1-3.8-14.3v-1.7c0-6.1,1.3-10.8,3.8-14.1C548-142,551.6-143.6,556.3-143.6z"/>
					</g>
					<g>
						<path id="Roboto-Regular-111_2_" class="st2" d="M585-123.1c0,5.2,1,9.8,3,14c2,4.1,4.9,7.3,8.5,9.6c3.6,2.3,7.8,3.4,12.4,3.4
							c7.2,0,13-2.5,17.5-7.5c4.4-5,6.7-11.6,6.7-19.9v-0.6c0-5.1-1-9.8-3-13.8c-2-4.1-4.8-7.3-8.5-9.5c-3.7-2.3-7.9-3.4-12.6-3.4
							c-7.2,0-13,2.5-17.4,7.5c-4.4,5-6.7,11.6-6.7,19.8V-123.1z M594.1-124.2c0-5.9,1.4-10.6,4.1-14.1s6.4-5.3,10.9-5.3
							c4.6,0,8.2,1.8,10.9,5.4c2.7,3.6,4,8.6,4,15.1c0,5.8-1.4,10.5-4.1,14.1c-2.8,3.6-6.4,5.4-11,5.4c-4.5,0-8.1-1.8-10.8-5.3
							C595.5-112.5,594.1-117.6,594.1-124.2z"/>
					</g>
					<g>
						<path id="Roboto-Regular-110_2_" class="st2" d="M653-97.2l0.3-6.6c4,5.1,9.3,7.6,15.8,7.6c11.2,0,16.8-6.3,16.9-18.9V-150h-9
							v35c0,3.8-0.9,6.6-2.6,8.4c-1.7,1.8-4.4,2.7-8,2.7c-2.9,0-5.5-0.8-7.7-2.3c-2.2-1.6-3.9-3.6-5.2-6.2V-150h-9v52.8H653z"/>
					</g>
					<g>
						<path id="Roboto-Regular-116_2_" class="st2" d="M711.9-84.4v-12.8h9.9v-7h-9.9v-32.8c0-2.1,0.4-3.7,1.3-4.8
							c0.9-1.1,2.4-1.6,4.5-1.6c1,0,2.5,0.2,4.3,0.6v-7.3c-2.4-0.7-4.7-1-6.9-1c-4,0-7.1,1.2-9.1,3.7c-2.1,2.4-3.1,5.9-3.1,10.4
							v32.8h-9.6v7h9.6v12.8H711.9z"/>
					</g>
					<g>
						<path id="Roboto-Regular-105" class="st2" d="M742.1-150h-9v52.8h9V-150z M732.3-83.2c0,1.5,0.4,2.7,1.3,3.7s2.2,1.5,4,1.5
							c1.8,0,3.1-0.5,4-1.5c0.9-1,1.4-2.3,1.4-3.7c0-1.5-0.5-2.7-1.4-3.7c-0.9-1-2.2-1.5-4-1.5c-1.8,0-3.1,0.5-4,1.5
							C732.8-85.8,732.3-84.6,732.3-83.2z"/>
					</g>
					<g>
						<path id="Roboto-Regular-103" class="st2" d="M754.4-123.1c0,8.2,1.9,14.8,5.7,19.6c3.8,4.9,8.9,7.3,15.1,7.3
							c6.4,0,11.5-2.3,15.1-6.8l0.4,5.9h8.3v-51.6c0-6.8-2-12.2-6.1-16.2s-9.5-5.9-16.3-5.9c-3.8,0-7.5,0.8-11.2,2.4
							s-6.4,3.9-8.3,6.7l4.7,5.4c3.9-4.8,8.6-7.2,14.2-7.2c4.4,0,7.8,1.2,10.3,3.7c2.5,2.5,3.7,5.9,3.7,10.4v4.5
							c-3.6-4.2-8.5-6.3-14.8-6.3c-6.2,0-11.2,2.5-15,7.5C756.3-138.5,754.4-131.7,754.4-123.1z M763.5-124.2c0-6,1.2-10.6,3.7-14
							c2.4-3.4,5.9-5.1,10.3-5.1c5.7,0,9.9,2.6,12.5,7.8v24.1c-2.8,5-6.9,7.6-12.5,7.6c-4.4,0-7.8-1.7-10.3-5.1
							C764.7-112.4,763.5-117.5,763.5-124.2z"/>
					</g>
					<g>
						<path id="Roboto-Regular-115" class="st2" d="M843.4-136c0,2.4-0.9,4.3-2.8,5.7c-1.8,1.4-5,2.5-9.6,3.5
							c-4.6,1-8.2,2.2-10.9,3.5c-2.7,1.4-4.7,3-6,4.9c-1.3,1.9-1.9,4.1-1.9,6.7c0,4.3,1.8,8,5.5,11c3.7,3,8.3,4.5,14,4.5
							c6,0,10.8-1.5,14.6-4.6c3.7-3.1,5.6-7,5.6-11.9h-9.1c0,2.5-1.1,4.6-3.2,6.4c-2.1,1.8-4.7,2.7-7.9,2.7c-3.3,0-5.9-0.7-7.7-2.2
							c-1.9-1.4-2.8-3.3-2.8-5.6c0-2.2,0.9-3.8,2.6-4.9c1.7-1.1,4.8-2.2,9.4-3.2c4.5-1,8.2-2.2,11-3.6c2.8-1.4,4.9-3.1,6.2-5.1
							c1.4-2,2-4.4,2-7.2c0-4.7-1.9-8.5-5.7-11.4c-3.8-2.8-8.7-4.3-14.7-4.3c-4.2,0-8,0.8-11.2,2.3c-3.3,1.5-5.8,3.6-7.6,6.3
							c-1.8,2.7-2.8,5.6-2.8,8.7h9c0.2-3,1.4-5.4,3.6-7.2c2.3-1.8,5.2-2.7,9-2.7c3.4,0,6.2,0.7,8.2,2.1
							C842.4-140.1,843.4-138.3,843.4-136z"/>
					</g>
				</g>
			</g>
		</g>
		<rect x="74.3" y="21.6" class="st17" width="452.5" height="215.9"/>
		<rect x="74.3" y="21.6" class="st17" width="452.5" height="215.9"/>
		<rect x="74.3" y="21.6" class="st17" width="452.5" height="215.9"/>
		<rect x="74.3" y="21.6" class="st17" width="452.5" height="215.9"/>
		<rect x="74.3" y="21.6" class="st17" width="452.5" height="215.9"/>
		<rect x="74.3" y="21.6" class="st17" width="452.5" height="215.9"/>
		<rect x="74.3" y="21.6" class="st17" width="452.5" height="215.9"/>
		<rect x="74.3" y="21.6" class="st17" width="452.5" height="215.9"/>
		<rect x="74.3" y="21.6" class="st17" width="452.5" height="215.9"/>
		<rect x="74.3" y="21.6" class="st17" width="452.5" height="215.9"/>
		<rect x="74.3" y="21.6" class="st17" width="452.5" height="215.9"/>
		<rect x="74.3" y="21.6" class="st17" width="452.5" height="215.9"/>
		<rect x="74.3" y="21.6" class="st17" width="452.5" height="215.9"/>
		<rect x="74.3" y="21.6" class="st17" width="452.5" height="215.9"/>
		<rect x="74.3" y="21.6" class="st17" width="452.5" height="215.9"/>
		<rect x="74.3" y="21.6" class="st17" width="452.5" height="215.9"/>
		<rect x="74.3" y="21.6" class="st17" width="452.5" height="215.9"/>
		<rect x="74.3" y="21.6" class="st17" width="452.5" height="215.9"/>
		<rect x="74.3" y="21.6" class="st17" width="452.5" height="215.9"/>
		<rect x="74.3" y="21.6" class="st17" width="452.5" height="215.9"/>
		<rect x="74.3" y="21.6" class="st17" width="452.5" height="215.9"/>
		<rect x="74.3" y="21.6" class="st17" width="452.5" height="215.9"/>
		<rect x="74.3" y="21.6" class="st17" width="452.5" height="215.9"/>
		<rect x="74.3" y="21.6" class="st17" width="452.5" height="215.9"/>
		<rect x="74.3" y="21.6" class="st17" width="452.5" height="215.9"/>
		<rect x="74.3" y="21.6" class="st17" width="452.5" height="215.9"/>
		<rect x="74.3" y="21.6" class="st17" width="452.5" height="215.9"/>
		<rect x="74.3" y="21.6" class="st17" width="452.5" height="215.9"/>
		<rect x="74.3" y="21.6" class="st17" width="452.5" height="215.9"/>
		<g id="patch_32">
			<g>
				<defs>
					<rect id="SVGID_31_" x="74.3" y="21.6" width="452.5" height="215.9"/>
				</defs>
				<clipPath id="SVGID_32_">
					<use xlink:href="#SVGID_31_"  style="overflow:visible;"/>
				</clipPath>
				<g class="st18">
					<polygon class="st19" points="232,234.1 232,213.9 218.3,213.9 218.3,224 204.6,224 204.6,217.3 190.9,217.3 190.9,207.2 
						177.2,207.2 177.2,180.2 163.5,180.2 163.5,170 149.7,170 149.7,217.3 136,217.3 136,224 122.3,224 122.3,234.1 108.6,234.1 
						94.9,234.1 94.9,237.5 108.6,237.5 122.3,237.5 136,237.5 149.7,237.5 163.5,237.5 177.2,237.5 190.9,237.5 204.6,237.5 
						218.3,237.5 232,237.5 245.7,237.5 245.7,234.1 					"/>
					<rect x="273.1" y="227.4" class="st19" width="13.7" height="10.1"/>
					<polygon class="st19" points="492.5,234.1 478.8,234.1 478.8,227.4 465.1,227.4 465.1,173.4 451.4,173.4 451.4,72.2 
						437.7,72.2 437.7,55.3 424,55.3 424,95.8 410.3,95.8 410.3,132.9 396.5,132.9 396.5,163.3 382.8,163.3 382.8,207.2 
						369.1,207.2 369.1,213.9 355.4,213.9 355.4,227.4 341.7,227.4 341.7,220.7 328,220.7 328,210.5 314.3,210.5 314.3,234.1 
						300.6,234.1 300.6,237.5 314.3,237.5 328,237.5 341.7,237.5 355.4,237.5 369.1,237.5 382.8,237.5 396.5,237.5 410.3,237.5 
						424,237.5 437.7,237.5 451.4,237.5 465.1,237.5 478.8,237.5 492.5,237.5 506.2,237.5 506.2,234.1 					"/>
				</g>
			</g>
		</g>
		<g id="line2d_31">
			<g>
				<defs>
					<rect id="SVGID_33_" x="74.3" y="21.6" width="452.5" height="215.9"/>
				</defs>
				<clipPath id="SVGID_34_">
					<use xlink:href="#SVGID_33_"  style="overflow:visible;"/>
				</clipPath>
				<path class="st20" d="M427.3,237.5V21.6"/>
			</g>
		</g>
		<g id="patch_33">
			<path class="st21" d="M74.3,237.5V21.6"/>
		</g>
		<g id="patch_34">
			<path class="st21" d="M526.8,237.5V21.6"/>
		</g>
		<g id="patch_35">
			<path class="st21" d="M74.3,237.5h452.5"/>
		</g>
		<g id="patch_36">
			<path class="st21" d="M74.3,21.6h452.5"/>
		</g>
		<g id="text_18">
			<g transform="translate(287.058364 48.8163)scale(0.15 -0.15)">
				<g>
					<path id="Roboto-Regular-87" class="st2" d="M143.6,46.4L145,37l2,8.5L161,95.1h7.9l13.7-49.6l2-8.6l1.5,9.6l11,48.6h9.4
						L189.3,24h-8.5l-14.7,51.8l-1.1,5.4l-1.1-5.4L148.7,24h-8.5L123,95.1h9.4L143.6,46.4z"/>
				</g>
				<g>
					<path id="Roboto-Regular-101_2_" class="st2" d="M237.5,23c-7.2,0-13,2.4-17.5,7.1c-4.5,4.7-6.7,11-6.7,18.9v1.7
						c0,5.2,1,9.9,3,14c2,4.1,4.8,7.3,8.4,9.7c3.6,2.3,7.5,3.5,11.7,3.5c6.9,0,12.2-2.3,16-6.8c3.8-4.5,5.7-11,5.7-19.4v-3.8h-35.8
						c0.1-5.2,1.6-9.4,4.6-12.6c2.9-3.2,6.6-4.8,11.1-4.8c3.2,0,5.9,0.7,8.1,2c2.2,1.3,4.2,3,5.8,5.2l5.5-4.3
						C253,26.4,246.3,23,237.5,23z M236.4,70.4c-3.6,0-6.7-1.3-9.2-4c-2.5-2.7-4-6.4-4.6-11.2h26.5v0.7c-0.3,4.6-1.5,8.1-3.7,10.7
						C243.1,69.1,240.1,70.4,236.4,70.4z"/>
				</g>
				<g>
					<path id="Roboto-Regular-105_1_" class="st2" d="M278.4,24h-9v52.8h9V24z M268.6,90.8c0,1.5,0.4,2.7,1.3,3.7
						c0.9,1,2.2,1.5,4,1.5c1.8,0,3.1-0.5,4-1.5c0.9-1,1.4-2.3,1.4-3.7c0-1.5-0.5-2.7-1.4-3.7c-0.9-1-2.2-1.5-4-1.5
						c-1.8,0-3.1,0.5-4,1.5C269,88.2,268.6,89.4,268.6,90.8z"/>
				</g>
				<g>
					<path id="Roboto-Regular-103_1_" class="st2" d="M290.7,50.9c0,8.2,1.9,14.8,5.7,19.6c3.8,4.9,8.9,7.3,15.1,7.3
						c6.4,0,11.5-2.3,15.1-6.8l0.4,5.9h8.3V25.3c0-6.8-2-12.2-6.1-16.2c-4.1-3.9-9.5-5.9-16.3-5.9c-3.8,0-7.5,0.8-11.2,2.4
						c-3.6,1.6-6.4,3.9-8.3,6.7l4.7,5.4c3.9-4.8,8.6-7.2,14.2-7.2c4.4,0,7.8,1.2,10.3,3.7c2.5,2.5,3.7,5.9,3.7,10.4v4.5
						c-3.6-4.2-8.5-6.3-14.8-6.3c-6.2,0-11.2,2.5-15,7.5C292.6,35.5,290.7,42.3,290.7,50.9z M299.7,49.8c0-6,1.2-10.6,3.7-14
						c2.4-3.4,5.9-5.1,10.3-5.1c5.7,0,9.9,2.6,12.5,7.8v24.1c-2.8,5-6.9,7.6-12.5,7.6c-4.4,0-7.8-1.7-10.3-5.1
						C301,61.6,299.7,56.5,299.7,49.8z"/>
				</g>
				<g>
					<path id="Roboto-Regular-104" class="st2" d="M357.9,70.4c4,4.9,9.2,7.4,15.6,7.4c11.2,0,16.8-6.3,16.9-18.9V24h-9v35
						c0,3.8-0.9,6.6-2.6,8.4c-1.7,1.8-4.4,2.7-8,2.7c-2.9,0-5.5-0.8-7.7-2.3c-2.2-1.6-3.9-3.6-5.2-6.2V24h-9v75h9V70.4z"/>
				</g>
				<g>
					<path id="Roboto-Regular-116_3_" class="st2" d="M416.2,89.6V76.8h9.9v-7h-9.9V37.1c0-2.1,0.4-3.7,1.3-4.8
						c0.9-1.1,2.4-1.6,4.5-1.6c1,0,2.5,0.2,4.3,0.6V24c-2.4-0.7-4.7-1-6.9-1c-4,0-7.1,1.2-9.1,3.7c-2.1,2.4-3.1,5.9-3.1,10.4v32.8
						h-9.6v7h9.6v12.8H416.2z"/>
				</g>
				<g>
					<path id="Roboto-Regular-101_3_" class="st2" d="M458.6,23c-7.2,0-13,2.4-17.5,7.1c-4.5,4.7-6.7,11-6.7,18.9v1.7
						c0,5.2,1,9.9,3,14c2,4.1,4.8,7.3,8.4,9.7c3.6,2.3,7.5,3.5,11.7,3.5c6.9,0,12.2-2.3,16-6.8c3.8-4.5,5.7-11,5.7-19.4v-3.8h-35.8
						c0.1-5.2,1.6-9.4,4.6-12.6c2.9-3.2,6.6-4.8,11.1-4.8c3.2,0,5.9,0.7,8.1,2c2.2,1.3,4.2,3,5.8,5.2l5.5-4.3
						C474.1,26.4,467.4,23,458.6,23z M457.5,70.4c-3.6,0-6.7-1.3-9.2-4c-2.5-2.7-4-6.4-4.6-11.2h26.5v0.7c-0.3,4.6-1.5,8.1-3.7,10.7
						C464.2,69.1,461.2,70.4,457.5,70.4z"/>
				</g>
				<g>
					<path id="Roboto-Regular-100" class="st2" d="M487.4,50.9c0,8.1,1.9,14.6,5.8,19.5c3.8,4.9,8.9,7.4,15.1,7.4
						c6.2,0,11.1-2.1,14.7-6.3V99h9V24h-8.3l-0.4,5.7c-3.6-4.4-8.6-6.7-15.1-6.7c-6.1,0-11.1,2.5-15,7.5c-3.9,5-5.8,11.6-5.8,19.6
						V50.9z M496.5,49.8c0-6,1.2-10.7,3.7-14.1c2.5-3.4,5.9-5.1,10.3-5.1c5.7,0,9.9,2.6,12.5,7.7v24.3c-2.7,5-6.8,7.5-12.5,7.5
						c-4.4,0-7.9-1.7-10.4-5.1C497.7,61.6,496.5,56.5,496.5,49.8z"/>
				</g>
				<g>
					<path id="Roboto-Regular-32_4_" class="st2" d="M539.2,24"/>
				</g>
				<g>
					<path id="Roboto-Regular-109_1_" class="st2" d="M579.3,76.8l0.3-5.9c3.9,4.6,9.1,6.8,15.7,6.8c7.4,0,12.4-2.8,15.1-8.5
						c1.8,2.5,4,4.6,6.8,6.2c2.8,1.6,6.2,2.3,10,2.3c11.6,0,17.5-6.1,17.7-18.4V24h-9v34.9c0,3.8-0.9,6.6-2.6,8.5
						c-1.7,1.9-4.6,2.8-8.7,2.8c-3.4,0-6.1-1-8.4-3c-2.2-2-3.5-4.7-3.8-8.1V24h-9.1v34.6c0,7.7-3.8,11.5-11.3,11.5
						c-5.9,0-10-2.5-12.2-7.6V24h-9v52.8H579.3z"/>
				</g>
				<g>
					<path id="Roboto-Regular-101_4_" class="st2" d="M680.4,23c-7.2,0-13,2.4-17.5,7.1s-6.7,11-6.7,18.9v1.7c0,5.2,1,9.9,3,14
						c2,4.1,4.8,7.3,8.4,9.7c3.6,2.3,7.5,3.5,11.7,3.5c6.9,0,12.2-2.3,16-6.8c3.8-4.5,5.7-11,5.7-19.4v-3.8h-35.8
						c0.1-5.2,1.6-9.4,4.6-12.6c2.9-3.2,6.6-4.8,11.1-4.8c3.2,0,5.9,0.7,8.1,2c2.2,1.3,4.2,3,5.8,5.2l5.5-4.3
						C695.9,26.4,689.2,23,680.4,23z M679.2,70.4c-3.6,0-6.7-1.3-9.2-4c-2.5-2.7-4-6.4-4.6-11.2h26.5v0.7c-0.3,4.6-1.5,8.1-3.7,10.7
						C686,69.1,683,70.4,679.2,70.4z"/>
				</g>
				<g>
					<path id="Roboto-Regular-100_1_" class="st2" d="M709.2,50.9c0,8.1,1.9,14.6,5.8,19.5c3.8,4.9,8.9,7.4,15.1,7.4
						c6.2,0,11.1-2.1,14.7-6.3V99h9V24h-8.3l-0.4,5.7c-3.6-4.4-8.6-6.7-15.1-6.7c-6.1,0-11.1,2.5-15,7.5c-3.9,5-5.8,11.6-5.8,19.6
						V50.9z M718.2,49.8c0-6,1.2-10.7,3.7-14.1c2.5-3.4,5.9-5.1,10.3-5.1c5.7,0,9.9,2.6,12.5,7.7v24.3c-2.7,5-6.8,7.5-12.5,7.5
						c-4.4,0-7.9-1.7-10.4-5.1C719.5,61.6,718.2,56.5,718.2,49.8z"/>
				</g>
				<g>
					<path id="Roboto-Regular-105_2_" class="st2" d="M777.6,24h-9v52.8h9V24z M767.9,90.8c0,1.5,0.4,2.7,1.3,3.7s2.2,1.5,4,1.5
						c1.8,0,3.1-0.5,4-1.5c0.9-1,1.4-2.3,1.4-3.7c0-1.5-0.5-2.7-1.4-3.7c-0.9-1-2.2-1.5-4-1.5c-1.8,0-3.1,0.5-4,1.5
						C768.3,88.2,767.9,89.4,767.9,90.8z"/>
				</g>
				<g>
					<path id="Roboto-Regular-97" class="st2" d="M824.7,24c-0.5,1-0.9,2.9-1.3,5.6c-4.2-4.4-9.2-6.5-15-6.5
						c-5.2,0-9.5,1.5-12.8,4.4s-5,6.7-5,11.2c0,5.5,2.1,9.8,6.3,12.8c4.2,3,10.1,4.6,17.7,4.6h8.8v4.2c0,3.2-0.9,5.7-2.8,7.5
						c-1.9,1.9-4.7,2.8-8.3,2.8c-3.2,0-5.9-0.8-8.1-2.4s-3.3-3.6-3.3-5.9h-9.1c0,2.6,0.9,5.2,2.8,7.6c1.9,2.5,4.4,4.4,7.6,5.8
						c3.2,1.4,6.7,2.2,10.6,2.2c6.1,0,10.9-1.5,14.3-4.6c3.4-3,5.2-7.2,5.4-12.6V36.4c0-4.9,0.6-8.7,1.8-11.6V24H824.7z M809.7,30.9
						c2.8,0,5.5,0.7,8,2.2c2.5,1.5,4.4,3.4,5.5,5.7v10.8h-7.1c-11.1,0-16.6-3.2-16.6-9.7c0-2.8,0.9-5,2.8-6.6
						C804.3,31.7,806.7,30.9,809.7,30.9z"/>
				</g>
				<g>
					<path id="Roboto-Regular-110_3_" class="st2" d="M855,76.8l0.3-6.6c4,5.1,9.3,7.6,15.8,7.6c11.2,0,16.8-6.3,16.9-18.9V24h-9v35
						c0,3.8-0.9,6.6-2.6,8.4c-1.7,1.8-4.4,2.7-8,2.7c-2.9,0-5.5-0.8-7.7-2.3c-2.2-1.6-3.9-3.6-5.2-6.2V24h-9v52.8H855z"/>
				</g>
			</g>
		</g>
	</g>
</g>
</svg>
