<?xml version="1.0" encoding="utf-8"?>
<!-- Generator: Adobe Illustrator 22.0.1, SVG Export Plug-In . SVG Version: 6.00 Build 0)  -->
<svg version="1.1" id="Layer_1" xmlns="http://www.w3.org/2000/svg" xmlns:xlink="http://www.w3.org/1999/xlink" x="0px" y="0px"
	 viewBox="0 0 570 289.2" style="enable-background:new 0 0 570 289.2;" xml:space="preserve">
<style type="text/css">
	.st0{fill:#FFFFFF;}
	.st1{clip-path:url(#SVGID_2_);fill:none;stroke:#CCCCCC;stroke-width:0.8;stroke-linejoin:round;stroke-dasharray:0.8,1.32;}
	.st2{fill:#262626;}
	.st3{clip-path:url(#SVGID_4_);fill:none;stroke:#CCCCCC;stroke-width:0.8;stroke-linejoin:round;stroke-dasharray:0.8,1.32;}
	.st4{clip-path:url(#SVGID_6_);fill:none;stroke:#CCCCCC;stroke-width:0.8;stroke-linejoin:round;stroke-dasharray:0.8,1.32;}
	.st5{clip-path:url(#SVGID_8_);fill:none;stroke:#CCCCCC;stroke-width:0.8;stroke-linejoin:round;stroke-dasharray:0.8,1.32;}
	.st6{clip-path:url(#SVGID_10_);fill:none;stroke:#CCCCCC;stroke-width:0.8;stroke-linejoin:round;stroke-dasharray:0.8,1.32;}
	.st7{clip-path:url(#SVGID_12_);fill:none;stroke:#CCCCCC;stroke-width:0.8;stroke-linejoin:round;stroke-dasharray:0.8,1.32;}
	.st8{clip-path:url(#SVGID_14_);fill:none;stroke:#CCCCCC;stroke-width:0.8;stroke-linejoin:round;stroke-dasharray:0.8,1.32;}
	.st9{clip-path:url(#SVGID_16_);fill:none;stroke:#CCCCCC;stroke-width:0.8;stroke-linejoin:round;stroke-dasharray:0.8,1.32;}
	.st10{clip-path:url(#SVGID_18_);fill:none;stroke:#CCCCCC;stroke-width:0.8;stroke-linejoin:round;stroke-dasharray:0.8,1.32;}
	.st11{clip-path:url(#SVGID_20_);fill:none;stroke:#CCCCCC;stroke-width:0.8;stroke-linejoin:round;stroke-dasharray:0.8,1.32;}
	.st12{clip-path:url(#SVGID_22_);fill:none;stroke:#CCCCCC;stroke-width:0.8;stroke-linejoin:round;stroke-dasharray:0.8,1.32;}
	.st13{clip-path:url(#SVGID_24_);fill:none;stroke:#CCCCCC;stroke-width:0.8;stroke-linejoin:round;stroke-dasharray:0.8,1.32;}
	.st14{clip-path:url(#SVGID_26_);fill:none;stroke:#CCCCCC;stroke-width:0.8;stroke-linejoin:round;stroke-dasharray:0.8,1.32;}
	.st15{fill:none;}
	.st16{clip-path:url(#SVGID_28_);}
	.st17{opacity:0.5;fill:#1F77B4;enable-background:new    ;}
	
		.st18{clip-path:url(#SVGID_30_);fill:none;stroke:#262626;stroke-width:1.5;stroke-linejoin:round;stroke-opacity:0.85;stroke-dasharray:5.55,2.4;}
	.st19{fill:none;stroke:#CCCCCC;stroke-linecap:square;}
</style>
<g id="figure_1">
	<g id="patch_1">
		<path class="st0" d="M0,289.2h570V0H0V289.2z"/>
	</g>
	<g id="axes_1">
		<g id="patch_2">
			<path class="st0" d="M74.3,238.5H525V21.6H74.3V238.5z"/>
		</g>
		<g id="matplotlib.axis_1">
			<g id="xtick_1">
				<g id="line2d_1">
					<g>
						<defs>
							<rect id="SVGID_1_" x="74.3" y="21.6" width="450.7" height="216.9"/>
						</defs>
						<clipPath id="SVGID_2_">
							<use xlink:href="#SVGID_1_"  style="overflow:visible;"/>
						</clipPath>
						<path class="st1" d="M94.1,238.5V21.6"/>
					</g>
				</g>
				<g id="line2d_2">
				</g>
				<g id="text_1">
					<g transform="translate(73.101394 253.588583)scale(0.107 -0.107)">
						<g>
							<path id="Roboto-Regular-48" class="st2" d="M218.7,64c0-10.6-1.8-18.4-5.4-23.6c-3.6-5.1-9.3-7.7-16.9-7.7
								c-7.6,0-13.2,2.5-16.8,7.5c-3.6,5-5.5,12.5-5.7,22.5v12c0,10.5,1.8,18.2,5.4,23.3c3.6,5.1,9.3,7.6,17,7.6
								c7.6,0,13.3-2.5,16.9-7.4c3.6-4.9,5.5-12.5,5.6-22.7V64z M209.7,76.3c0,7.7-1.1,13.2-3.2,16.7c-2.1,3.5-5.5,5.3-10.2,5.3
								c-4.6,0-8-1.7-10.1-5.2c-2.1-3.5-3.2-8.8-3.3-16.1V62.5c0-7.7,1.1-13.3,3.3-17c2.2-3.7,5.6-5.5,10.1-5.5
								c4.5,0,7.8,1.7,9.9,5.2c2.2,3.5,3.3,8.9,3.4,16.3V76.3z"/>
						</g>
					</g>
				</g>
			</g>
			<g id="xtick_2">
				<g id="line2d_3">
					<g>
						<defs>
							<rect id="SVGID_3_" x="74.3" y="21.6" width="450.7" height="216.9"/>
						</defs>
						<clipPath id="SVGID_4_">
							<use xlink:href="#SVGID_3_"  style="overflow:visible;"/>
						</clipPath>
						<path class="st3" d="M155.1,238.5V21.6"/>
					</g>
				</g>
				<g id="line2d_4">
				</g>
				<g id="text_2">
					<g transform="translate(134.055511 253.588583)scale(0.107 -0.107)">
						<g>
							<path id="Roboto-Regular-50" class="st2" d="M220.7,33.6h-46.6v6.5l24.6,27.3c3.6,4.1,6.2,7.5,7.5,10.1
								c1.4,2.6,2.1,5.3,2.1,8c0,3.7-1.1,6.8-3.4,9.1c-2.2,2.4-5.2,3.6-9,3.6c-4.5,0-8-1.3-10.5-3.8c-2.5-2.6-3.7-6.1-3.7-10.7h-9
								c0,6.6,2.1,11.8,6.3,15.9c4.2,4,9.9,6.1,16.9,6.1c6.6,0,11.8-1.7,15.7-5.2c3.8-3.5,5.8-8.1,5.8-13.8c0-7-4.5-15.3-13.4-25
								l-19-20.7h35.7V33.6z"/>
						</g>
					</g>
				</g>
			</g>
			<g id="xtick_3">
				<g id="line2d_5">
					<g>
						<defs>
							<rect id="SVGID_5_" x="74.3" y="21.6" width="450.7" height="216.9"/>
						</defs>
						<clipPath id="SVGID_6_">
							<use xlink:href="#SVGID_5_"  style="overflow:visible;"/>
						</clipPath>
						<path class="st4" d="M216,238.5V21.6"/>
					</g>
				</g>
				<g id="line2d_6">
				</g>
				<g id="text_3">
					<g transform="translate(195.009629 253.588583)scale(0.107 -0.107)">
						<g>
							<path id="Roboto-Regular-52" class="st2" d="M212.3,57.5h9.9v-7.4h-9.9V33.6h-9.1v16.5h-32.4v5.3l31.8,49.3h9.6V57.5z
								 M181.1,57.5h22.1v34.9l-1.1-2L181.1,57.5z"/>
						</g>
					</g>
				</g>
			</g>
			<g id="xtick_4">
				<g id="line2d_7">
					<g>
						<defs>
							<rect id="SVGID_7_" x="74.3" y="21.6" width="450.7" height="216.9"/>
						</defs>
						<clipPath id="SVGID_8_">
							<use xlink:href="#SVGID_7_"  style="overflow:visible;"/>
						</clipPath>
						<path class="st5" d="M277,238.5V21.6"/>
					</g>
				</g>
				<g id="line2d_8">
				</g>
				<g id="text_4">
					<g transform="translate(255.963746 253.588583)scale(0.107 -0.107)">
						<g>
							<path id="Roboto-Regular-54" class="st2" d="M209.6,104.8v-7.7H208c-7-0.1-12.6-2.2-16.8-6.3c-4.2-4-6.6-9.7-7.2-17
								c3.8,4.3,8.9,6.4,15.3,6.4c6.2,0,11.1-2.2,14.8-6.5c3.7-4.4,5.5-10,5.5-16.9c0-7.3-2-13.2-6-17.6s-9.3-6.6-16-6.6
								c-6.8,0-12.3,2.6-16.5,7.8c-4.2,5.2-6.3,12-6.3,20.2v3.5c0,13.1,2.8,23.1,8.4,30c5.6,6.9,13.9,10.5,24.9,10.6H209.6z
								 M197.8,72.8c-3.1,0-5.9-0.9-8.5-2.8c-2.6-1.9-4.4-4.2-5.4-7v-3.3c0-5.9,1.3-10.6,4-14.2c2.6-3.6,5.9-5.4,9.9-5.4
								c4.1,0,7.3,1.5,9.6,4.5c2.3,3,3.5,6.9,3.5,11.8c0,4.9-1.2,8.8-3.5,11.8C204.8,71.2,201.7,72.8,197.8,72.8z"/>
						</g>
					</g>
				</g>
			</g>
			<g id="xtick_5">
				<g id="line2d_9">
					<g>
						<defs>
							<rect id="SVGID_9_" x="74.3" y="21.6" width="450.7" height="216.9"/>
						</defs>
						<clipPath id="SVGID_10_">
							<use xlink:href="#SVGID_9_"  style="overflow:visible;"/>
						</clipPath>
						<path class="st6" d="M337.9,238.5V21.6"/>
					</g>
				</g>
				<g id="line2d_10">
				</g>
				<g id="text_5">
					<g transform="translate(316.917864 253.588583)scale(0.107 -0.107)">
						<g>
							<path id="Roboto-Regular-56" class="st2" d="M217.3,86.2c0-3.6-0.9-6.7-2.8-9.5c-1.9-2.8-4.4-4.9-7.6-6.5
								c3.7-1.6,6.6-3.9,8.8-7s3.3-6.5,3.3-10.4c0-6.1-2.1-11-6.2-14.7c-4.1-3.6-9.6-5.5-16.4-5.5c-6.8,0-12.3,1.8-16.4,5.5
								c-4.1,3.7-6.2,8.6-6.2,14.7c0,3.8,1,7.3,3.1,10.4c2.1,3.1,5,5.4,8.7,7c-3.2,1.6-5.6,3.7-7.5,6.5c-1.8,2.8-2.7,5.9-2.7,9.4
								c0,6,1.9,10.7,5.8,14.3c3.8,3.5,8.9,5.3,15.2,5.3c6.3,0,11.3-1.8,15.2-5.3C215.4,96.9,217.3,92.2,217.3,86.2z M209.9,53
								c0,4-1.3,7.2-3.8,9.7c-2.5,2.5-5.8,3.8-9.9,3.8c-4.1,0-7.3-1.2-9.8-3.7c-2.5-2.5-3.7-5.7-3.7-9.8c0-4,1.2-7.2,3.6-9.5
								s5.7-3.5,10-3.5c4.2,0,7.5,1.2,10,3.5C208.7,45.9,209.9,49,209.9,53z M196.3,98.3c-3.6,0-6.4-1.1-8.6-3.3
								c-2.2-2.2-3.3-5.2-3.3-9c0-3.6,1.1-6.5,3.3-8.8c2.2-2.2,5.1-3.3,8.7-3.3c3.6,0,6.5,1.1,8.7,3.3c2.2,2.2,3.3,5.2,3.3,8.8
								c0,3.6-1.1,6.6-3.4,8.8C202.6,97.2,199.8,98.3,196.3,98.3z"/>
						</g>
					</g>
				</g>
			</g>
			<g id="xtick_6">
				<g id="line2d_11">
					<g>
						<defs>
							<rect id="SVGID_11_" x="74.3" y="21.6" width="450.7" height="216.9"/>
						</defs>
						<clipPath id="SVGID_12_">
							<use xlink:href="#SVGID_11_"  style="overflow:visible;"/>
						</clipPath>
						<path class="st7" d="M398.9,238.5V21.6"/>
					</g>
				</g>
				<g id="line2d_12">
				</g>
				<g id="text_6">
					<g transform="translate(374.867622 253.588583)scale(0.107 -0.107)">
						<g>
							<path id="Roboto-Regular-49" class="st2" d="M203.8,33.6h-9.1v60.2l-18.2-6.7v8.2l25.9,9.7h1.4V33.6z"/>
						</g>
						<g>
							<path id="Roboto-Regular-48_1_" class="st2" d="M274.9,64c0-10.6-1.8-18.4-5.4-23.6c-3.6-5.1-9.3-7.7-16.9-7.7
								c-7.6,0-13.2,2.5-16.8,7.5c-3.6,5-5.5,12.5-5.7,22.5v12c0,10.5,1.8,18.2,5.4,23.3c3.6,5.1,9.3,7.6,17,7.6
								c7.6,0,13.3-2.5,16.9-7.4c3.6-4.9,5.5-12.5,5.6-22.7V64z M265.9,76.3c0,7.7-1.1,13.2-3.2,16.7c-2.1,3.5-5.5,5.3-10.2,5.3
								c-4.6,0-8-1.7-10.1-5.2c-2.1-3.5-3.2-8.8-3.3-16.1V62.5c0-7.7,1.1-13.3,3.3-17c2.2-3.7,5.6-5.5,10.1-5.5
								c4.5,0,7.8,1.7,9.9,5.2c2.2,3.5,3.3,8.9,3.4,16.3V76.3z"/>
						</g>
					</g>
				</g>
			</g>
			<g id="xtick_7">
				<g id="line2d_13">
					<g>
						<defs>
							<rect id="SVGID_13_" x="74.3" y="21.6" width="450.7" height="216.9"/>
						</defs>
						<clipPath id="SVGID_14_">
							<use xlink:href="#SVGID_13_"  style="overflow:visible;"/>
						</clipPath>
						<path class="st8" d="M459.8,238.5V21.6"/>
					</g>
				</g>
				<g id="line2d_14">
				</g>
				<g id="text_7">
					<g transform="translate(435.821739 253.588583)scale(0.107 -0.107)">
						<g>
							<path id="Roboto-Regular-49_1_" class="st2" d="M203.8,33.6h-9.1v60.2l-18.2-6.7v8.2l25.9,9.7h1.4V33.6z"/>
						</g>
						<g>
							<path id="Roboto-Regular-50_1_" class="st2" d="M276.9,33.6h-46.6v6.5l24.6,27.3c3.6,4.1,6.2,7.5,7.5,10.1
								c1.4,2.6,2.1,5.3,2.1,8c0,3.7-1.1,6.8-3.4,9.1c-2.2,2.4-5.2,3.6-9,3.6c-4.5,0-8-1.3-10.5-3.8c-2.5-2.6-3.7-6.1-3.7-10.7h-9
								c0,6.6,2.1,11.8,6.3,15.9c4.2,4,9.9,6.1,16.9,6.1c6.6,0,11.8-1.7,15.7-5.2c3.8-3.5,5.8-8.1,5.8-13.8c0-7-4.5-15.3-13.4-25
								l-19-20.7h35.7V33.6z"/>
						</g>
					</g>
				</g>
			</g>
			<g id="xtick_8">
				<g id="line2d_15">
					<g>
						<defs>
							<rect id="SVGID_15_" x="74.3" y="21.6" width="450.7" height="216.9"/>
						</defs>
						<clipPath id="SVGID_16_">
							<use xlink:href="#SVGID_15_"  style="overflow:visible;"/>
						</clipPath>
						<path class="st9" d="M520.8,238.5V21.6"/>
					</g>
				</g>
				<g id="line2d_16">
				</g>
				<g id="text_8">
					<g transform="translate(496.775856 253.588583)scale(0.107 -0.107)">
						<g>
							<path id="Roboto-Regular-49_2_" class="st2" d="M203.8,33.6h-9.1v60.2l-18.2-6.7v8.2l25.9,9.7h1.4V33.6z"/>
						</g>
						<g>
							<path id="Roboto-Regular-52_1_" class="st2" d="M268.5,57.5h9.9v-7.4h-9.9V33.6h-9.1v16.5H227v5.3l31.8,49.3h9.6V57.5z
								 M237.3,57.5h22.1v34.9l-1.1-2L237.3,57.5z"/>
						</g>
					</g>
				</g>
			</g>
			<g id="text_9">
				<g transform="translate(222.572472 268.703895)scale(0.12 -0.12)">
					<g>
						<path id="Roboto-Regular-77" class="st2" d="M170.4,101.1l23.3-58l23.2,58H229V30h-9.4v27.7l0.9,29.9L197.2,30H190l-23.3,57.4
							l0.9-29.7V30h-9.4v71.1H170.4z"/>
					</g>
					<g>
						<path id="Roboto-Regular-101" class="st2" d="M266.1,29c-7.2,0-13,2.4-17.5,7.1c-4.5,4.7-6.7,11-6.7,18.9v1.7
							c0,5.2,1,9.9,3,14c2,4.1,4.8,7.3,8.4,9.7c3.6,2.3,7.5,3.5,11.7,3.5c6.9,0,12.2-2.3,16-6.8c3.8-4.5,5.7-11,5.7-19.4v-3.8h-35.8
							c0.1-5.2,1.6-9.4,4.6-12.6c2.9-3.2,6.6-4.8,11.1-4.8c3.2,0,5.9,0.7,8.1,2c2.2,1.3,4.2,3,5.8,5.2l5.5-4.3
							C281.6,32.4,275,29,266.1,29z M265,76.4c-3.6,0-6.7-1.3-9.2-4c-2.5-2.7-4-6.4-4.6-11.2h26.5v0.7c-0.3,4.6-1.5,8.1-3.7,10.7
							C271.7,75.1,268.7,76.4,265,76.4z"/>
					</g>
					<g>
						<path id="Roboto-Regular-97" class="st2" d="M329.8,30c-0.5,1-0.9,2.9-1.3,5.6c-4.2-4.4-9.2-6.5-15-6.5
							c-5.2,0-9.5,1.5-12.8,4.4c-3.3,2.9-5,6.7-5,11.2c0,5.5,2.1,9.8,6.3,12.8c4.2,3,10.1,4.6,17.7,4.6h8.8v4.2
							c0,3.2-0.9,5.7-2.8,7.5c-1.9,1.9-4.7,2.8-8.3,2.8c-3.2,0-5.9-0.8-8.1-2.4c-2.2-1.6-3.3-3.6-3.3-5.9h-9.1
							c0,2.6,0.9,5.2,2.8,7.6c1.9,2.5,4.4,4.4,7.6,5.8c3.2,1.4,6.7,2.2,10.6,2.2c6.1,0,10.9-1.5,14.3-4.6c3.4-3,5.2-7.2,5.4-12.6
							V42.4c0-4.9,0.6-8.7,1.8-11.6V30H329.8z M314.8,36.9c2.8,0,5.5,0.7,8,2.2c2.5,1.5,4.4,3.4,5.5,5.7v10.8h-7.1
							c-11.1,0-16.6-3.2-16.6-9.7c0-2.8,0.9-5,2.8-6.6C309.4,37.7,311.8,36.9,314.8,36.9z"/>
					</g>
					<g>
						<path id="Roboto-Regular-110" class="st2" d="M360.1,82.8l0.3-6.6c4,5.1,9.3,7.6,15.8,7.6c11.2,0,16.8-6.3,16.9-18.9V30h-9v35
							c0,3.8-0.9,6.6-2.6,8.4c-1.7,1.8-4.4,2.7-8,2.7c-2.9,0-5.5-0.8-7.7-2.3c-2.2-1.6-3.9-3.6-5.2-6.2V30h-9v52.8H360.1z"/>
					</g>
					<g>
						<path id="Roboto-Regular-32" class="st2" d="M399.9,30"/>
					</g>
					<g>
						<path id="Roboto-Regular-99" class="st2" d="M452.7,36.4c3.2,0,6,1,8.4,2.9c2.4,2,3.8,4.4,4,7.3h8.5c-0.2-3-1.2-5.9-3.1-8.7
							c-1.9-2.7-4.5-4.9-7.7-6.5c-3.2-1.6-6.6-2.4-10.2-2.4c-7.2,0-12.9,2.4-17.2,7.2c-4.2,4.8-6.4,11.4-6.4,19.7v1.5
							c0,5.1,0.9,9.7,2.8,13.7c1.9,4,4.6,7.1,8.1,9.3c3.5,2.2,7.7,3.3,12.5,3.3c5.9,0,10.8-1.8,14.8-5.3c3.9-3.5,6-8.1,6.3-13.8
							h-8.5c-0.3,3.4-1.6,6.2-3.9,8.4c-2.3,2.2-5.2,3.3-8.6,3.3c-4.6,0-8.2-1.7-10.7-5c-2.5-3.3-3.8-8.1-3.8-14.3v-1.7
							c0-6.1,1.3-10.8,3.8-14.1C444.4,38,448,36.4,452.7,36.4z"/>
					</g>
					<g>
						<path id="Roboto-Regular-111" class="st2" d="M481.4,56.9c0,5.2,1,9.8,3,14c2,4.1,4.9,7.3,8.5,9.6c3.6,2.3,7.8,3.4,12.4,3.4
							c7.2,0,13-2.5,17.5-7.5c4.4-5,6.7-11.6,6.7-19.9v-0.6c0-5.1-1-9.8-3-13.8c-2-4.1-4.8-7.3-8.5-9.5c-3.7-2.3-7.9-3.4-12.6-3.4
							c-7.2,0-13,2.5-17.4,7.5c-4.4,5-6.7,11.6-6.7,19.8V56.9z M490.5,55.8c0-5.9,1.4-10.6,4.1-14.1s6.4-5.3,10.9-5.3
							c4.6,0,8.2,1.8,10.9,5.4c2.7,3.6,4,8.6,4,15.1c0,5.8-1.4,10.5-4.1,14.1c-2.8,3.6-6.4,5.4-11,5.4c-4.5,0-8.1-1.8-10.8-5.3
							C491.9,67.5,490.5,62.4,490.5,55.8z"/>
					</g>
					<g>
						<path id="Roboto-Regular-110_1_" class="st2" d="M549.4,82.8l0.3-6.6c4,5.1,9.3,7.6,15.8,7.6c11.2,0,16.8-6.3,16.9-18.9V30h-9
							v35c0,3.8-0.9,6.6-2.6,8.4c-1.7,1.8-4.4,2.7-8,2.7c-2.9,0-5.5-0.8-7.7-2.3c-2.2-1.6-3.9-3.6-5.2-6.2V30h-9v52.8H549.4z"/>
					</g>
					<g>
						<path id="Roboto-Regular-116" class="st2" d="M608.3,95.6V82.8h9.9v-7h-9.9V43.1c0-2.1,0.4-3.7,1.3-4.8
							c0.9-1.1,2.4-1.6,4.5-1.6c1,0,2.5,0.2,4.3,0.6V30c-2.4-0.7-4.7-1-6.9-1c-4,0-7.1,1.2-9.1,3.7c-2.1,2.4-3.1,5.9-3.1,10.4v32.8
							h-9.6v7h9.6v12.8H608.3z"/>
					</g>
					<g>
						<path id="Roboto-Regular-105" class="st2" d="M638.5,30h-9v52.8h9V30z M628.7,96.8c0,1.5,0.4,2.7,1.3,3.7c0.9,1,2.2,1.5,4,1.5
							c1.8,0,3.1-0.5,4-1.5c0.9-1,1.4-2.3,1.4-3.7c0-1.5-0.5-2.7-1.4-3.7c-0.9-1-2.2-1.5-4-1.5c-1.8,0-3.1,0.5-4,1.5
							C629.2,94.2,628.7,95.4,628.7,96.8z"/>
					</g>
					<g>
						<path id="Roboto-Regular-103" class="st2" d="M650.8,56.9c0,8.2,1.9,14.8,5.7,19.6c3.8,4.9,8.9,7.3,15.1,7.3
							c6.4,0,11.5-2.3,15.1-6.8l0.4,5.9h8.3V31.3c0-6.8-2-12.2-6.1-16.2s-9.5-5.9-16.3-5.9c-3.8,0-7.5,0.8-11.2,2.4
							c-3.6,1.6-6.4,3.9-8.3,6.7l4.7,5.4c3.9-4.8,8.6-7.2,14.2-7.2c4.4,0,7.8,1.2,10.3,3.7c2.5,2.5,3.7,5.9,3.7,10.4v4.5
							c-3.6-4.2-8.5-6.3-14.8-6.3c-6.2,0-11.2,2.5-15,7.5C652.7,41.5,650.8,48.3,650.8,56.9z M659.9,55.8c0-6,1.2-10.6,3.7-14
							c2.4-3.4,5.9-5.1,10.3-5.1c5.7,0,9.9,2.6,12.5,7.8v24.1c-2.8,5-6.9,7.6-12.5,7.6c-4.4,0-7.8-1.7-10.3-5.1
							C661.1,67.6,659.9,62.5,659.9,55.8z"/>
					</g>
					<g>
						<path id="Roboto-Regular-32_1_" class="st2" d="M702.2,30"/>
					</g>
					<g>
						<path id="Roboto-Regular-99_1_" class="st2" d="M755,36.4c3.2,0,6,1,8.4,2.9c2.4,2,3.8,4.4,4,7.3h8.5c-0.2-3-1.2-5.9-3.1-8.7
							c-1.9-2.7-4.5-4.9-7.7-6.5C762,29.8,758.6,29,755,29c-7.2,0-12.9,2.4-17.2,7.2c-4.2,4.8-6.4,11.4-6.4,19.7v1.5
							c0,5.1,0.9,9.7,2.8,13.7c1.9,4,4.6,7.1,8.1,9.3c3.5,2.2,7.7,3.3,12.5,3.3c5.9,0,10.8-1.8,14.8-5.3c3.9-3.5,6-8.1,6.3-13.8
							h-8.5c-0.3,3.4-1.6,6.2-3.9,8.4c-2.3,2.2-5.2,3.3-8.6,3.3c-4.6,0-8.2-1.7-10.7-5c-2.5-3.3-3.8-8.1-3.8-14.3v-1.7
							c0-6.1,1.3-10.8,3.8-14.1C746.8,38,750.4,36.4,755,36.4z"/>
					</g>
					<g>
						<path id="Roboto-Regular-111_1_" class="st2" d="M783.8,56.9c0,5.2,1,9.8,3,14c2,4.1,4.9,7.3,8.5,9.6
							c3.6,2.3,7.8,3.4,12.4,3.4c7.2,0,13-2.5,17.5-7.5c4.4-5,6.7-11.6,6.7-19.9v-0.6c0-5.1-1-9.8-3-13.8c-2-4.1-4.8-7.3-8.5-9.5
							c-3.7-2.3-7.9-3.4-12.6-3.4c-7.2,0-13,2.5-17.4,7.5c-4.4,5-6.7,11.6-6.7,19.8V56.9z M792.9,55.8c0-5.9,1.4-10.6,4.1-14.1
							s6.4-5.3,10.9-5.3c4.6,0,8.2,1.8,10.9,5.4c2.7,3.6,4,8.6,4,15.1c0,5.8-1.4,10.5-4.1,14.1c-2.8,3.6-6.4,5.4-11,5.4
							c-4.5,0-8.1-1.8-10.8-5.3C794.2,67.5,792.9,62.4,792.9,55.8z"/>
					</g>
					<g>
						<path id="Roboto-Regular-118" class="st2" d="M860.6,42.2l13.1,40.6h9.2L864,30h-6.9L838,82.8h9.2L860.6,42.2z"/>
					</g>
					<g>
						<path id="Roboto-Regular-101_1_" class="st2" d="M913.6,29c-7.2,0-13,2.4-17.5,7.1s-6.7,11-6.7,18.9v1.7c0,5.2,1,9.9,3,14
							c2,4.1,4.8,7.3,8.4,9.7c3.6,2.3,7.5,3.5,11.7,3.5c6.9,0,12.2-2.3,16-6.8c3.8-4.5,5.7-11,5.7-19.4v-3.8h-35.8
							c0.1-5.2,1.6-9.4,4.6-12.6s6.6-4.8,11.1-4.8c3.2,0,5.9,0.7,8.1,2c2.2,1.3,4.2,3,5.8,5.2l5.5-4.3C929.1,32.4,922.4,29,913.6,29
							z M912.4,76.4c-3.6,0-6.7-1.3-9.2-4c-2.5-2.7-4-6.4-4.6-11.2h26.5v0.7c-0.3,4.6-1.5,8.1-3.7,10.7
							C919.2,75.1,916.2,76.4,912.4,76.4z"/>
					</g>
					<g>
						<path id="Roboto-Regular-114" class="st2" d="M970.1,74.7c-1.4,0.2-2.8,0.3-4.4,0.3c-5.9,0-9.9-2.5-12.1-7.6V30h-9v52.8h8.8
							l0.1-6.1c3,4.7,7.2,7.1,12.6,7.1c1.8,0,3.1-0.2,4-0.7V74.7z"/>
					</g>
					<g>
						<path id="Roboto-Regular-97_1_" class="st2" d="M1011.1,30c-0.5,1-0.9,2.9-1.3,5.6c-4.2-4.4-9.2-6.5-15-6.5
							c-5.2,0-9.5,1.5-12.8,4.4s-5,6.7-5,11.2c0,5.5,2.1,9.8,6.3,12.8c4.2,3,10.1,4.6,17.7,4.6h8.8v4.2c0,3.2-0.9,5.7-2.8,7.5
							c-1.9,1.9-4.7,2.8-8.3,2.8c-3.2,0-5.9-0.8-8.1-2.4s-3.3-3.6-3.3-5.9H978c0,2.6,0.9,5.2,2.8,7.6c1.9,2.5,4.4,4.4,7.6,5.8
							c3.2,1.4,6.7,2.2,10.6,2.2c6.1,0,10.9-1.5,14.3-4.6c3.4-3,5.2-7.2,5.4-12.6V42.4c0-4.9,0.6-8.7,1.8-11.6V30H1011.1z
							 M996.1,36.9c2.8,0,5.5,0.7,8,2.2c2.5,1.5,4.4,3.4,5.5,5.7v10.8h-7.1c-11.1,0-16.6-3.2-16.6-9.7c0-2.8,0.9-5,2.8-6.6
							S993.1,36.9,996.1,36.9z"/>
					</g>
					<g>
						<path id="Roboto-Regular-103_1_" class="st2" d="M1030.7,56.9c0,8.2,1.9,14.8,5.7,19.6c3.8,4.9,8.9,7.3,15.1,7.3
							c6.4,0,11.5-2.3,15.1-6.8l0.4,5.9h8.3V31.3c0-6.8-2-12.2-6.1-16.2s-9.5-5.9-16.3-5.9c-3.8,0-7.5,0.8-11.2,2.4
							s-6.4,3.9-8.3,6.7l4.7,5.4c3.9-4.8,8.6-7.2,14.2-7.2c4.4,0,7.8,1.2,10.3,3.7c2.5,2.5,3.7,5.9,3.7,10.4v4.5
							c-3.6-4.2-8.5-6.3-14.8-6.3c-6.2,0-11.2,2.5-15,7.5C1032.6,41.5,1030.7,48.3,1030.7,56.9z M1039.8,55.8c0-6,1.2-10.6,3.7-14
							c2.4-3.4,5.9-5.1,10.3-5.1c5.7,0,9.9,2.6,12.5,7.8v24.1c-2.8,5-6.9,7.6-12.5,7.6c-4.4,0-7.8-1.7-10.3-5.1
							C1041,67.6,1039.8,62.5,1039.8,55.8z"/>
					</g>
					<g>
						<path id="Roboto-Regular-101_2_" class="st2" d="M1110.9,29c-7.2,0-13,2.4-17.5,7.1s-6.7,11-6.7,18.9v1.7c0,5.2,1,9.9,3,14
							c2,4.1,4.8,7.3,8.4,9.7c3.6,2.3,7.5,3.5,11.7,3.5c6.9,0,12.2-2.3,16-6.8c3.8-4.5,5.7-11,5.7-19.4v-3.8h-35.8
							c0.1-5.2,1.6-9.4,4.6-12.6s6.6-4.8,11.1-4.8c3.2,0,5.9,0.7,8.1,2c2.2,1.3,4.2,3,5.8,5.2l5.5-4.3
							C1126.4,32.4,1119.7,29,1110.9,29z M1109.7,76.4c-3.6,0-6.7-1.3-9.2-4c-2.5-2.7-4-6.4-4.6-11.2h26.5v0.7
							c-0.3,4.6-1.5,8.1-3.7,10.7C1116.5,75.1,1113.5,76.4,1109.7,76.4z"/>
					</g>
				</g>
			</g>
		</g>
		<g id="matplotlib.axis_2">
			<g id="ytick_1">
				<g id="line2d_17">
					<g>
						<defs>
							<rect id="SVGID_17_" x="74.3" y="21.6" width="450.7" height="216.9"/>
						</defs>
						<clipPath id="SVGID_18_">
							<use xlink:href="#SVGID_17_"  style="overflow:visible;"/>
						</clipPath>
						<path class="st10" d="M74.3,238.5H525"/>
					</g>
				</g>
				<g id="line2d_18">
				</g>
				<g id="text_10">
					<g transform="translate(46.828094 246.076083)scale(0.107 -0.107)">
						<g>
							<path id="Roboto-Regular-48_2_" class="st2" d="M218.7,64c0-10.6-1.8-18.4-5.4-23.6c-3.6-5.1-9.3-7.7-16.9-7.7
								c-7.6,0-13.2,2.5-16.8,7.5s-5.5,12.5-5.7,22.5v12c0,10.5,1.8,18.2,5.4,23.3c3.6,5.1,9.3,7.6,17,7.6c7.6,0,13.3-2.5,16.9-7.4
								c3.6-4.9,5.5-12.5,5.6-22.7V64z M209.7,76.3c0,7.7-1.1,13.2-3.2,16.7s-5.5,5.3-10.2,5.3c-4.6,0-8-1.7-10.1-5.2
								c-2.1-3.5-3.2-8.8-3.3-16.1V62.5c0-7.7,1.1-13.3,3.3-17s5.6-5.5,10.1-5.5c4.5,0,7.8,1.7,9.9,5.2c2.2,3.5,3.3,8.9,3.4,16.3
								V76.3z"/>
						</g>
					</g>
				</g>
			</g>
			<g id="ytick_2">
				<g id="line2d_19">
					<g>
						<defs>
							<rect id="SVGID_19_" x="74.3" y="21.6" width="450.7" height="216.9"/>
						</defs>
						<clipPath id="SVGID_20_">
							<use xlink:href="#SVGID_19_"  style="overflow:visible;"/>
						</clipPath>
						<path class="st11" d="M74.3,193.3H525"/>
					</g>
				</g>
				<g id="line2d_20">
				</g>
				<g id="text_11">
					<g transform="translate(40.819375 200.896169)scale(0.107 -0.107)">
						<g>
							<path id="Roboto-Regular-49_3_" class="st2" d="M203.8,33.6h-9.1v60.2l-18.2-6.7v8.2l25.9,9.7h1.4V33.6z"/>
						</g>
						<g>
							<path id="Roboto-Regular-48_3_" class="st2" d="M274.9,64c0-10.6-1.8-18.4-5.4-23.6c-3.6-5.1-9.3-7.7-16.9-7.7
								c-7.6,0-13.2,2.5-16.8,7.5c-3.6,5-5.5,12.5-5.7,22.5v12c0,10.5,1.8,18.2,5.4,23.3c3.6,5.1,9.3,7.6,17,7.6
								c7.6,0,13.3-2.5,16.9-7.4c3.6-4.9,5.5-12.5,5.6-22.7V64z M265.9,76.3c0,7.7-1.1,13.2-3.2,16.7s-5.5,5.3-10.2,5.3
								c-4.6,0-8-1.7-10.1-5.2c-2.1-3.5-3.2-8.8-3.3-16.1V62.5c0-7.7,1.1-13.3,3.3-17c2.2-3.7,5.6-5.5,10.1-5.5
								c4.5,0,7.8,1.7,9.9,5.2c2.2,3.5,3.3,8.9,3.4,16.3V76.3z"/>
						</g>
					</g>
				</g>
			</g>
			<g id="ytick_3">
				<g id="line2d_21">
					<g>
						<defs>
							<rect id="SVGID_21_" x="74.3" y="21.6" width="450.7" height="216.9"/>
						</defs>
						<clipPath id="SVGID_22_">
							<use xlink:href="#SVGID_21_"  style="overflow:visible;"/>
						</clipPath>
						<path class="st12" d="M74.3,148.1H525"/>
					</g>
				</g>
				<g id="line2d_22">
				</g>
				<g id="text_12">
					<g transform="translate(40.819375 155.716256)scale(0.107 -0.107)">
						<g>
							<path id="Roboto-Regular-50_2_" class="st2" d="M220.7,33.6h-46.6v6.5l24.6,27.3c3.6,4.1,6.2,7.5,7.5,10.1
								c1.4,2.6,2.1,5.3,2.1,8c0,3.7-1.1,6.8-3.4,9.1c-2.2,2.4-5.2,3.6-9,3.6c-4.5,0-8-1.3-10.5-3.8c-2.5-2.6-3.7-6.1-3.7-10.7h-9
								c0,6.6,2.1,11.8,6.3,15.9c4.2,4,9.9,6.1,16.9,6.1c6.6,0,11.8-1.7,15.7-5.2c3.8-3.5,5.8-8.1,5.8-13.8c0-7-4.5-15.3-13.4-25
								l-19-20.7h35.7V33.6z"/>
						</g>
						<g>
							<path id="Roboto-Regular-48_4_" class="st2" d="M274.9,64c0-10.6-1.8-18.4-5.4-23.6c-3.6-5.1-9.3-7.7-16.9-7.7
								c-7.6,0-13.2,2.5-16.8,7.5c-3.6,5-5.5,12.5-5.7,22.5v12c0,10.5,1.8,18.2,5.4,23.3c3.6,5.1,9.3,7.6,17,7.6
								c7.6,0,13.3-2.5,16.9-7.4c3.6-4.9,5.5-12.5,5.6-22.7V64z M265.9,76.3c0,7.7-1.1,13.2-3.2,16.7s-5.5,5.3-10.2,5.3
								c-4.6,0-8-1.7-10.1-5.2c-2.1-3.5-3.2-8.8-3.3-16.1V62.5c0-7.7,1.1-13.3,3.3-17c2.2-3.7,5.6-5.5,10.1-5.5
								c4.5,0,7.8,1.7,9.9,5.2c2.2,3.5,3.3,8.9,3.4,16.3V76.3z"/>
						</g>
					</g>
				</g>
			</g>
			<g id="ytick_4">
				<g id="line2d_23">
					<g>
						<defs>
							<rect id="SVGID_23_" x="74.3" y="21.6" width="450.7" height="216.9"/>
						</defs>
						<clipPath id="SVGID_24_">
							<use xlink:href="#SVGID_23_"  style="overflow:visible;"/>
						</clipPath>
						<path class="st13" d="M74.3,102.9H525"/>
					</g>
				</g>
				<g id="line2d_24">
				</g>
				<g id="text_13">
					<g transform="translate(40.819375 110.536343)scale(0.107 -0.107)">
						<g>
							<path id="Roboto-Regular-51" class="st2" d="M187.3,73.6h6.8c4.3,0.1,7.6,1.2,10.1,3.4c2.4,2.2,3.7,5.1,3.7,8.8
								c0,8.3-4.2,12.5-12.5,12.5c-3.9,0-7-1.1-9.3-3.4c-2.3-2.2-3.5-5.2-3.5-8.9h-9c0,5.6,2.1,10.3,6.2,14
								c4.1,3.7,9.4,5.6,15.7,5.6c6.7,0,12-1.8,15.8-5.3c3.8-3.6,5.7-8.5,5.7-14.8c0-3.1-1-6.1-3-9c-2-2.9-4.7-5.1-8.2-6.5
								c3.9-1.2,6.9-3.3,9-6.1c2.1-2.9,3.2-6.4,3.2-10.5c0-6.4-2.1-11.5-6.3-15.2c-4.2-3.7-9.6-5.6-16.3-5.6
								c-6.7,0-12.1,1.8-16.3,5.4c-4.2,3.6-6.3,8.4-6.3,14.3h9.1c0-3.7,1.2-6.7,3.7-9c2.4-2.3,5.7-3.4,9.8-3.4c4.4,0,7.7,1.1,10,3.4
								s3.5,5.6,3.5,9.8c0,4.1-1.3,7.3-3.8,9.5c-2.5,2.2-6.2,3.4-11,3.4h-6.8V73.6z"/>
						</g>
						<g>
							<path id="Roboto-Regular-48_5_" class="st2" d="M274.9,64c0-10.6-1.8-18.4-5.4-23.6c-3.6-5.1-9.3-7.7-16.9-7.7
								c-7.6,0-13.2,2.5-16.8,7.5c-3.6,5-5.5,12.5-5.7,22.5v12c0,10.5,1.8,18.2,5.4,23.3c3.6,5.1,9.3,7.6,17,7.6
								c7.6,0,13.3-2.5,16.9-7.4c3.6-4.9,5.5-12.5,5.6-22.7V64z M265.9,76.3c0,7.7-1.1,13.2-3.2,16.7s-5.5,5.3-10.2,5.3
								c-4.6,0-8-1.7-10.1-5.2c-2.1-3.5-3.2-8.8-3.3-16.1V62.5c0-7.7,1.1-13.3,3.3-17c2.2-3.7,5.6-5.5,10.1-5.5
								c4.5,0,7.8,1.7,9.9,5.2c2.2,3.5,3.3,8.9,3.4,16.3V76.3z"/>
						</g>
					</g>
				</g>
			</g>
			<g id="ytick_5">
				<g id="line2d_25">
					<g>
						<defs>
							<rect id="SVGID_25_" x="74.3" y="21.6" width="450.7" height="216.9"/>
						</defs>
						<clipPath id="SVGID_26_">
							<use xlink:href="#SVGID_25_"  style="overflow:visible;"/>
						</clipPath>
						<path class="st14" d="M74.3,57.7H525"/>
					</g>
				</g>
				<g id="line2d_26">
				</g>
				<g id="text_14">
					<g transform="translate(40.819375 65.35643)scale(0.107 -0.107)">
						<g>
							<path id="Roboto-Regular-52_2_" class="st2" d="M212.3,57.5h9.9v-7.4h-9.9V33.6h-9.1v16.5h-32.4v5.3l31.8,49.3h9.6V57.5z
								 M181.1,57.5h22.1v34.9l-1.1-2L181.1,57.5z"/>
						</g>
						<g>
							<path id="Roboto-Regular-48_6_" class="st2" d="M274.9,64c0-10.6-1.8-18.4-5.4-23.6c-3.6-5.1-9.3-7.7-16.9-7.7
								c-7.6,0-13.2,2.5-16.8,7.5c-3.6,5-5.5,12.5-5.7,22.5v12c0,10.5,1.8,18.2,5.4,23.3c3.6,5.1,9.3,7.6,17,7.6
								c7.6,0,13.3-2.5,16.9-7.4c3.6-4.9,5.5-12.5,5.6-22.7V64z M265.9,76.3c0,7.7-1.1,13.2-3.2,16.7s-5.5,5.3-10.2,5.3
								c-4.6,0-8-1.7-10.1-5.2c-2.1-3.5-3.2-8.8-3.3-16.1V62.5c0-7.7,1.1-13.3,3.3-17c2.2-3.7,5.6-5.5,10.1-5.5
								c4.5,0,7.8,1.7,9.9,5.2c2.2,3.5,3.3,8.9,3.4,16.3V76.3z"/>
						</g>
					</g>
				</g>
			</g>
			<g id="text_15">
				<g transform="translate(34.32375 183.276166)rotate(-90)scale(0.12 -0.12)">
					<g>
						<path id="Roboto-Regular-78" class="st2" d="M92.9-150h-9.4L47.7-95.2V-150h-9.4v71.1h9.4l35.9-55v55h9.3V-150z"/>
					</g>
					<g>
						<path id="Roboto-Regular-117" class="st2" d="M140.7-144.8c-3.5-4.1-8.7-6.2-15.5-6.2c-5.6,0-9.9,1.6-12.9,4.9
							c-2.9,3.3-4.4,8.1-4.5,14.5v34.4h9v-34.1c0-8,3.3-12,9.8-12c6.9,0,11.5,2.6,13.8,7.7v38.4h9V-150h-8.6L140.7-144.8z"/>
					</g>
					<g>
						<path id="Roboto-Regular-109" class="st2" d="M171.7-97.2l0.3-5.9c3.9,4.6,9.1,6.8,15.7,6.8c7.4,0,12.4-2.8,15.1-8.5
							c1.8,2.5,4,4.6,6.8,6.2c2.8,1.6,6.2,2.3,10,2.3c11.6,0,17.5-6.1,17.7-18.4V-150h-9v34.9c0,3.8-0.9,6.6-2.6,8.5
							c-1.7,1.9-4.6,2.8-8.7,2.8c-3.4,0-6.1-1-8.4-3c-2.2-2-3.5-4.7-3.8-8.1V-150h-9.1v34.6c0,7.7-3.8,11.5-11.3,11.5
							c-5.9,0-10-2.5-12.2-7.6V-150h-9v52.8H171.7z"/>
					</g>
					<g>
						<path id="Roboto-Regular-98" class="st2" d="M295.6-124.2c0-8.1-1.9-14.6-5.6-19.5c-3.7-4.9-8.7-7.3-14.9-7.3
							c-6.7,0-11.8,2.4-15.5,7.1l-0.4-6.1h-8.3v75h9v-28c3.6,4.5,8.7,6.8,15.1,6.8c6.4,0,11.5-2.4,15.1-7.3
							c3.7-4.8,5.5-11.5,5.5-19.9V-124.2z M286.6-123.2c0,6.1-1.2,10.9-3.6,14.3c-2.4,3.4-5.8,5-10.3,5c-6,0-10.2-2.8-12.8-8.3V-135
							c2.8-5.5,7.1-8.3,12.9-8.3c4.3,0,7.7,1.7,10.1,5C285.4-135,286.6-129.9,286.6-123.2z"/>
					</g>
					<g>
						<path id="Roboto-Regular-101_3_" class="st2" d="M328.9-151c-7.2,0-13,2.4-17.5,7.1c-4.5,4.7-6.7,11-6.7,18.9v1.7
							c0,5.2,1,9.9,3,14c2,4.1,4.8,7.3,8.4,9.7c3.6,2.3,7.5,3.5,11.7,3.5c6.9,0,12.2-2.3,16-6.8c3.8-4.5,5.7-11,5.7-19.4v-3.8h-35.8
							c0.1-5.2,1.6-9.4,4.6-12.6c2.9-3.2,6.6-4.8,11.1-4.8c3.2,0,5.9,0.7,8.1,2c2.2,1.3,4.2,3,5.8,5.2l5.5-4.3
							C344.4-147.6,337.8-151,328.9-151z M327.8-103.6c-3.6,0-6.7-1.3-9.2-4c-2.5-2.7-4-6.4-4.6-11.2h26.5v0.7
							c-0.3,4.6-1.5,8.1-3.7,10.7C334.6-104.9,331.6-103.6,327.8-103.6z"/>
					</g>
					<g>
						<path id="Roboto-Regular-114_1_" class="st2" d="M385.5-105.3c-1.4,0.2-2.8,0.3-4.4,0.3c-5.9,0-9.9-2.5-12.1-7.6V-150h-9v52.8
							h8.8l0.1-6.1c3,4.7,7.2,7.1,12.6,7.1c1.8,0,3.1-0.2,4-0.7V-105.3z"/>
					</g>
					<g>
						<path id="Roboto-Regular-32_2_" class="st2" d="M387-150"/>
					</g>
					<g>
						<path id="Roboto-Regular-111_2_" class="st2" d="M416.2-123.1c0,5.2,1,9.8,3,14c2,4.1,4.9,7.3,8.5,9.6
							c3.6,2.3,7.8,3.4,12.4,3.4c7.2,0,13-2.5,17.5-7.5c4.4-5,6.7-11.6,6.7-19.9v-0.6c0-5.1-1-9.8-3-13.8c-2-4.1-4.8-7.3-8.5-9.5
							c-3.7-2.3-7.9-3.4-12.6-3.4c-7.2,0-13,2.5-17.4,7.5c-4.4,5-6.7,11.6-6.7,19.8V-123.1z M425.3-124.2c0-5.9,1.4-10.6,4.1-14.1
							s6.4-5.3,10.9-5.3c4.6,0,8.2,1.8,10.9,5.4c2.7,3.6,4,8.6,4,15.1c0,5.8-1.4,10.5-4.1,14.1c-2.8,3.6-6.4,5.4-11,5.4
							c-4.5,0-8.1-1.8-10.8-5.3C426.6-112.5,425.3-117.6,425.3-124.2z"/>
					</g>
					<g>
						<path id="Roboto-Regular-102" class="st2" d="M480-150v45.8h-8.3v7h8.3v5.4c0,5.7,1.5,10,4.5,13.1c3,3.1,7.3,4.6,12.8,4.6
							c2.1,0,4.2-0.3,6.2-0.8l-0.5-7.3c-1.5,0.3-3.2,0.4-4.9,0.4c-2.9,0-5.2-0.9-6.8-2.6s-2.4-4.2-2.4-7.3v-5.6h11.3v-7h-11.3V-150
							H480z"/>
					</g>
					<g>
						<path id="Roboto-Regular-32_3_" class="st2" d="M503.5-150"/>
					</g>
					<g>
						<path id="Roboto-Regular-99_2_" class="st2" d="M556.3-143.6c3.2,0,6,1,8.4,2.9c2.4,2,3.8,4.4,4,7.3h8.5
							c-0.2-3-1.2-5.9-3.1-8.7c-1.9-2.7-4.5-4.9-7.7-6.5c-3.2-1.6-6.6-2.4-10.2-2.4c-7.2,0-12.9,2.4-17.2,7.2
							c-4.2,4.8-6.4,11.4-6.4,19.7v1.5c0,5.1,0.9,9.7,2.8,13.7c1.9,4,4.6,7.1,8.1,9.3c3.5,2.2,7.7,3.3,12.5,3.3
							c5.9,0,10.8-1.8,14.8-5.3c3.9-3.5,6-8.1,6.3-13.8h-8.5c-0.3,3.4-1.6,6.2-3.9,8.4c-2.3,2.2-5.2,3.3-8.6,3.3
							c-4.6,0-8.2-1.7-10.7-5c-2.5-3.3-3.8-8.1-3.8-14.3v-1.7c0-6.1,1.3-10.8,3.8-14.1C548-142,551.6-143.6,556.3-143.6z"/>
					</g>
					<g>
						<path id="Roboto-Regular-111_3_" class="st2" d="M585-123.1c0,5.2,1,9.8,3,14c2,4.1,4.9,7.3,8.5,9.6c3.6,2.3,7.8,3.4,12.4,3.4
							c7.2,0,13-2.5,17.5-7.5c4.4-5,6.7-11.6,6.7-19.9v-0.6c0-5.1-1-9.8-3-13.8c-2-4.1-4.8-7.3-8.5-9.5c-3.7-2.3-7.9-3.4-12.6-3.4
							c-7.2,0-13,2.5-17.4,7.5c-4.4,5-6.7,11.6-6.7,19.8V-123.1z M594.1-124.2c0-5.9,1.4-10.6,4.1-14.1s6.4-5.3,10.9-5.3
							c4.6,0,8.2,1.8,10.9,5.4c2.7,3.6,4,8.6,4,15.1c0,5.8-1.4,10.5-4.1,14.1c-2.8,3.6-6.4,5.4-11,5.4c-4.5,0-8.1-1.8-10.8-5.3
							C595.5-112.5,594.1-117.6,594.1-124.2z"/>
					</g>
					<g>
						<path id="Roboto-Regular-110_2_" class="st2" d="M653-97.2l0.3-6.6c4,5.1,9.3,7.6,15.8,7.6c11.2,0,16.8-6.3,16.9-18.9V-150h-9
							v35c0,3.8-0.9,6.6-2.6,8.4c-1.7,1.8-4.4,2.7-8,2.7c-2.9,0-5.5-0.8-7.7-2.3c-2.2-1.6-3.9-3.6-5.2-6.2V-150h-9v52.8H653z"/>
					</g>
					<g>
						<path id="Roboto-Regular-116_1_" class="st2" d="M711.9-84.4v-12.8h9.9v-7h-9.9v-32.8c0-2.1,0.4-3.7,1.3-4.8
							c0.9-1.1,2.4-1.6,4.5-1.6c1,0,2.5,0.2,4.3,0.6v-7.3c-2.4-0.7-4.7-1-6.9-1c-4,0-7.1,1.2-9.1,3.7c-2.1,2.4-3.1,5.9-3.1,10.4
							v32.8h-9.6v7h9.6v12.8H711.9z"/>
					</g>
					<g>
						<path id="Roboto-Regular-105_1_" class="st2" d="M742.1-150h-9v52.8h9V-150z M732.3-83.2c0,1.5,0.4,2.7,1.3,3.7s2.2,1.5,4,1.5
							c1.8,0,3.1-0.5,4-1.5c0.9-1,1.4-2.3,1.4-3.7c0-1.5-0.5-2.7-1.4-3.7c-0.9-1-2.2-1.5-4-1.5c-1.8,0-3.1,0.5-4,1.5
							C732.8-85.9,732.3-84.6,732.3-83.2z"/>
					</g>
					<g>
						<path id="Roboto-Regular-103_2_" class="st2" d="M754.4-123.2c0,8.2,1.9,14.8,5.7,19.6c3.8,4.9,8.9,7.3,15.1,7.3
							c6.4,0,11.5-2.3,15.1-6.8l0.4,5.9h8.3v-51.6c0-6.8-2-12.2-6.1-16.2s-9.5-5.9-16.3-5.9c-3.8,0-7.5,0.8-11.2,2.4
							s-6.4,3.9-8.3,6.7l4.7,5.4c3.9-4.8,8.6-7.2,14.2-7.2c4.4,0,7.8,1.2,10.3,3.7c2.5,2.5,3.7,5.9,3.7,10.4v4.5
							c-3.6-4.2-8.5-6.3-14.8-6.3c-6.2,0-11.2,2.5-15,7.5C756.3-138.6,754.4-131.8,754.4-123.2z M763.5-124.2c0-6,1.2-10.6,3.7-14
							c2.4-3.4,5.9-5.1,10.3-5.1c5.7,0,9.9,2.6,12.5,7.8v24.1c-2.8,5-6.9,7.6-12.5,7.6c-4.4,0-7.8-1.7-10.3-5.1
							C764.7-112.4,763.5-117.5,763.5-124.2z"/>
					</g>
					<g>
						<path id="Roboto-Regular-115" class="st2" d="M843.4-136c0,2.4-0.9,4.3-2.8,5.7c-1.8,1.4-5,2.5-9.6,3.5
							c-4.6,1-8.2,2.2-10.9,3.5c-2.7,1.4-4.7,3-6,4.9c-1.3,1.9-1.9,4.1-1.9,6.7c0,4.3,1.8,8,5.5,11c3.7,3,8.3,4.5,14,4.5
							c6,0,10.8-1.5,14.6-4.6c3.7-3.1,5.6-7,5.6-11.9h-9.1c0,2.5-1.1,4.6-3.2,6.4c-2.1,1.8-4.7,2.7-7.9,2.7c-3.3,0-5.9-0.7-7.7-2.2
							c-1.9-1.4-2.8-3.3-2.8-5.6c0-2.2,0.9-3.8,2.6-4.9c1.7-1.1,4.8-2.2,9.4-3.2c4.5-1,8.2-2.2,11-3.6c2.8-1.4,4.9-3.1,6.2-5.1
							c1.4-2,2-4.4,2-7.2c0-4.7-1.9-8.5-5.7-11.4c-3.8-2.8-8.7-4.3-14.7-4.3c-4.2,0-8,0.8-11.2,2.3c-3.3,1.5-5.8,3.6-7.6,6.3
							c-1.8,2.7-2.8,5.6-2.8,8.7h9c0.2-3,1.4-5.4,3.6-7.2c2.3-1.8,5.2-2.7,9-2.7c3.4,0,6.2,0.7,8.2,2.1
							C842.4-140.2,843.4-138.3,843.4-136z"/>
					</g>
				</g>
			</g>
		</g>
		<rect x="74.3" y="21.6" class="st15" width="450.7" height="216.9"/>
		<rect x="74.3" y="21.6" class="st15" width="450.7" height="216.9"/>
		<rect x="74.3" y="21.6" class="st15" width="450.7" height="216.9"/>
		<rect x="74.3" y="21.6" class="st15" width="450.7" height="216.9"/>
		<rect x="74.3" y="21.6" class="st15" width="450.7" height="216.9"/>
		<rect x="74.3" y="21.6" class="st15" width="450.7" height="216.9"/>
		<rect x="74.3" y="21.6" class="st15" width="450.7" height="216.9"/>
		<rect x="74.3" y="21.6" class="st15" width="450.7" height="216.9"/>
		<rect x="74.3" y="21.6" class="st15" width="450.7" height="216.9"/>
		<rect x="74.3" y="21.6" class="st15" width="450.7" height="216.9"/>
		<rect x="74.3" y="21.6" class="st15" width="450.7" height="216.9"/>
		<rect x="74.3" y="21.6" class="st15" width="450.7" height="216.9"/>
		<rect x="74.3" y="21.6" class="st15" width="450.7" height="216.9"/>
		<rect x="74.3" y="21.6" class="st15" width="450.7" height="216.9"/>
		<rect x="74.3" y="21.6" class="st15" width="450.7" height="216.9"/>
		<rect x="74.3" y="21.6" class="st15" width="450.7" height="216.9"/>
		<rect x="74.3" y="21.6" class="st15" width="450.7" height="216.9"/>
		<rect x="74.3" y="21.6" class="st15" width="450.7" height="216.9"/>
		<rect x="74.3" y="21.6" class="st15" width="450.7" height="216.9"/>
		<rect x="74.3" y="21.6" class="st15" width="450.7" height="216.9"/>
		<rect x="74.3" y="21.6" class="st15" width="450.7" height="216.9"/>
		<rect x="74.3" y="21.6" class="st15" width="450.7" height="216.9"/>
		<rect x="74.3" y="21.6" class="st15" width="450.7" height="216.9"/>
		<rect x="74.3" y="21.6" class="st15" width="450.7" height="216.9"/>
		<rect x="74.3" y="21.6" class="st15" width="450.7" height="216.9"/>
		<rect x="74.3" y="21.6" class="st15" width="450.7" height="216.9"/>
		<rect x="74.3" y="21.6" class="st15" width="450.7" height="216.9"/>
		<rect x="74.3" y="21.6" class="st15" width="450.7" height="216.9"/>
		<rect x="74.3" y="21.6" class="st15" width="450.7" height="216.9"/>
		<g id="patch_32">
			<g>
				<defs>
					<rect id="SVGID_27_" x="74.3" y="21.6" width="450.7" height="216.9"/>
				</defs>
				<clipPath id="SVGID_28_">
					<use xlink:href="#SVGID_27_"  style="overflow:visible;"/>
				</clipPath>
				<g class="st16">
					<polygon class="st17" points="135.8,233.9 135.8,148.1 122.1,148.1 122.1,166.2 108.5,166.2 108.5,143.6 94.8,143.6 
						94.8,238.5 108.5,238.5 122.1,238.5 135.8,238.5 149.5,238.5 149.5,233.9 					"/>
					<polygon class="st17" points="190.4,233.9 176.8,233.9 163.1,233.9 163.1,238.5 176.8,238.5 190.4,238.5 204.1,238.5 
						204.1,233.9 					"/>
					<polygon class="st17" points="463.6,229.4 449.9,229.4 449.9,224.9 436.3,224.9 436.3,220.4 422.6,220.4 422.6,112 408.9,112 
						408.9,57.7 395.3,57.7 395.3,121 381.6,121 381.6,197.8 368,197.8 368,202.3 354.3,202.3 354.3,211.4 340.7,211.4 340.7,220.4 
						327,220.4 327,224.9 313.3,224.9 313.3,229.4 299.7,229.4 286,229.4 286,233.9 272.4,233.9 258.7,233.9 258.7,238.5 
						272.4,238.5 286,238.5 299.7,238.5 313.3,238.5 327,238.5 340.7,238.5 354.3,238.5 368,238.5 381.6,238.5 395.3,238.5 
						408.9,238.5 422.6,238.5 436.3,238.5 449.9,238.5 463.6,238.5 477.2,238.5 477.2,229.4 					"/>
					<rect x="490.9" y="229.4" class="st17" width="13.7" height="9"/>
				</g>
			</g>
		</g>
		<g id="line2d_27">
			<g>
				<defs>
					<rect id="SVGID_29_" x="74.3" y="21.6" width="450.7" height="216.9"/>
				</defs>
				<clipPath id="SVGID_30_">
					<use xlink:href="#SVGID_29_"  style="overflow:visible;"/>
				</clipPath>
				<path class="st18" d="M385.7,238.5V21.6"/>
			</g>
		</g>
		<g id="patch_33">
			<path class="st19" d="M74.3,238.5V21.6"/>
		</g>
		<g id="patch_34">
			<path class="st19" d="M525,238.5V21.6"/>
		</g>
		<g id="patch_35">
			<path class="st19" d="M74.3,238.5H525"/>
		</g>
		<g id="patch_36">
			<path class="st19" d="M74.3,21.6H525"/>
		</g>
		<g id="text_16">
			<g transform="translate(243.9013 47.789957)scale(0.15 -0.15)">
				<g>
					<path id="Roboto-Regular-87" class="st2" d="M143.6,46.4L145,37l2,8.5L161,95.1h7.9l13.7-49.6l2-8.6l1.5,9.6l11,48.6h9.4
						L189.4,24h-8.5l-14.7,51.8l-1.1,5.4l-1.1-5.4L148.7,24h-8.5L123,95.1h9.4L143.6,46.4z"/>
				</g>
				<g>
					<path id="Roboto-Regular-101_4_" class="st2" d="M237.5,23c-7.2,0-13,2.4-17.5,7.1s-6.7,11-6.7,18.9v1.7c0,5.2,1,9.9,3,14
						c2,4.1,4.8,7.3,8.4,9.7c3.6,2.3,7.5,3.5,11.7,3.5c6.9,0,12.2-2.3,16-6.8c3.8-4.5,5.7-11,5.7-19.4v-3.8h-35.8
						c0.1-5.2,1.6-9.4,4.6-12.6s6.6-4.8,11.1-4.8c3.2,0,5.9,0.7,8.1,2c2.2,1.3,4.2,3,5.8,5.2l5.5-4.3C253,26.4,246.4,23,237.5,23z
						 M236.4,70.4c-3.6,0-6.7-1.3-9.2-4c-2.5-2.7-4-6.4-4.6-11.2h26.5v0.7c-0.3,4.6-1.5,8.1-3.7,10.7
						C243.1,69.1,240.2,70.4,236.4,70.4z"/>
				</g>
				<g>
					<path id="Roboto-Regular-105_2_" class="st2" d="M278.4,24h-9v52.8h9V24z M268.6,90.8c0,1.5,0.4,2.7,1.3,3.7
						c0.9,1,2.2,1.5,4,1.5c1.8,0,3.1-0.5,4-1.5c0.9-1,1.4-2.3,1.4-3.7c0-1.5-0.5-2.7-1.4-3.7c-0.9-1-2.2-1.5-4-1.5
						c-1.8,0-3.1,0.5-4,1.5C269.1,88.2,268.6,89.4,268.6,90.8z"/>
				</g>
				<g>
					<path id="Roboto-Regular-103_3_" class="st2" d="M290.7,50.9c0,8.2,1.9,14.8,5.7,19.6c3.8,4.9,8.9,7.3,15.1,7.3
						c6.4,0,11.5-2.3,15.1-6.8l0.4,5.9h8.3V25.3c0-6.8-2-12.2-6.1-16.2c-4.1-3.9-9.5-5.9-16.3-5.9c-3.8,0-7.5,0.8-11.2,2.4
						c-3.6,1.6-6.4,3.9-8.3,6.7l4.7,5.4c3.9-4.8,8.6-7.2,14.2-7.2c4.4,0,7.8,1.2,10.3,3.7c2.5,2.5,3.7,5.9,3.7,10.4v4.5
						c-3.6-4.2-8.5-6.3-14.8-6.3c-6.2,0-11.2,2.5-15,7.5C292.6,35.5,290.7,42.3,290.7,50.9z M299.8,49.8c0-6,1.2-10.6,3.7-14
						c2.4-3.4,5.9-5.1,10.3-5.1c5.7,0,9.9,2.6,12.5,7.8v24.1c-2.8,5-6.9,7.6-12.5,7.6c-4.4,0-7.8-1.7-10.3-5.1
						C301,61.6,299.8,56.5,299.8,49.8z"/>
				</g>
				<g>
					<path id="Roboto-Regular-104" class="st2" d="M358,70.4c4,4.9,9.2,7.4,15.6,7.4c11.2,0,16.8-6.3,16.9-18.9V24h-9v35
						c0,3.8-0.9,6.6-2.6,8.4c-1.7,1.8-4.4,2.7-8,2.7c-2.9,0-5.5-0.8-7.7-2.3c-2.2-1.6-3.9-3.6-5.2-6.2V24h-9v75h9V70.4z"/>
				</g>
				<g>
					<path id="Roboto-Regular-116_2_" class="st2" d="M416.3,89.6V76.8h9.9v-7h-9.9V37.1c0-2.1,0.4-3.7,1.3-4.8
						c0.9-1.1,2.4-1.6,4.5-1.6c1,0,2.5,0.2,4.3,0.6V24c-2.4-0.7-4.7-1-6.9-1c-4,0-7.1,1.2-9.1,3.7c-2.1,2.4-3.1,5.9-3.1,10.4v32.8
						h-9.6v7h9.6v12.8H416.3z"/>
				</g>
				<g>
					<path id="Roboto-Regular-101_5_" class="st2" d="M458.6,23c-7.2,0-13,2.4-17.5,7.1c-4.5,4.7-6.7,11-6.7,18.9v1.7
						c0,5.2,1,9.9,3,14c2,4.1,4.8,7.3,8.4,9.7c3.6,2.3,7.5,3.5,11.7,3.5c6.9,0,12.2-2.3,16-6.8c3.8-4.5,5.7-11,5.7-19.4v-3.8h-35.8
						c0.1-5.2,1.6-9.4,4.6-12.6c2.9-3.2,6.6-4.8,11.1-4.8c3.2,0,5.9,0.7,8.1,2c2.2,1.3,4.2,3,5.8,5.2l5.5-4.3
						C474.1,26.4,467.5,23,458.6,23z M457.5,70.4c-3.6,0-6.7-1.3-9.2-4c-2.5-2.7-4-6.4-4.6-11.2h26.5v0.7c-0.3,4.6-1.5,8.1-3.7,10.7
						C464.2,69.1,461.2,70.4,457.5,70.4z"/>
				</g>
				<g>
					<path id="Roboto-Regular-100" class="st2" d="M487.5,50.9c0,8.1,1.9,14.6,5.8,19.5c3.8,4.9,8.9,7.4,15.1,7.4
						c6.2,0,11.1-2.1,14.7-6.3V99h9V24h-8.3l-0.4,5.7c-3.6-4.4-8.6-6.7-15.1-6.7c-6.1,0-11.1,2.5-15,7.5c-3.9,5-5.8,11.6-5.8,19.6
						V50.9z M496.5,49.8c0-6,1.2-10.7,3.7-14.1c2.5-3.4,5.9-5.1,10.3-5.1c5.7,0,9.9,2.6,12.5,7.7v24.3c-2.7,5-6.8,7.5-12.5,7.5
						c-4.4,0-7.9-1.7-10.4-5.1C497.7,61.6,496.5,56.5,496.5,49.8z"/>
				</g>
				<g>
					<path id="Roboto-Regular-32_4_" class="st2" d="M539.2,24"/>
				</g>
				<g>
					<path id="Roboto-Regular-109_1_" class="st2" d="M579.3,76.8l0.3-5.9c3.9,4.6,9.1,6.8,15.7,6.8c7.4,0,12.4-2.8,15.1-8.5
						c1.8,2.5,4,4.6,6.8,6.2c2.8,1.6,6.2,2.3,10,2.3c11.6,0,17.5-6.1,17.7-18.4V24h-9v34.9c0,3.8-0.9,6.6-2.6,8.5
						c-1.7,1.9-4.6,2.8-8.7,2.8c-3.4,0-6.1-1-8.4-3c-2.2-2-3.5-4.7-3.8-8.1V24h-9.1v34.6c0,7.7-3.8,11.5-11.3,11.5
						c-5.9,0-10-2.5-12.2-7.6V24h-9v52.8H579.3z"/>
				</g>
				<g>
					<path id="Roboto-Regular-101_6_" class="st2" d="M680.4,23c-7.2,0-13,2.4-17.5,7.1s-6.7,11-6.7,18.9v1.7c0,5.2,1,9.9,3,14
						c2,4.1,4.8,7.3,8.4,9.7c3.6,2.3,7.5,3.5,11.7,3.5c6.9,0,12.2-2.3,16-6.8c3.8-4.5,5.7-11,5.7-19.4v-3.8h-35.8
						c0.1-5.2,1.6-9.4,4.6-12.6s6.6-4.8,11.1-4.8c3.2,0,5.9,0.7,8.1,2c2.2,1.3,4.2,3,5.8,5.2l5.5-4.3C695.9,26.4,689.2,23,680.4,23z
						 M679.3,70.4c-3.6,0-6.7-1.3-9.2-4c-2.5-2.7-4-6.4-4.6-11.2h26.5v0.7c-0.3,4.6-1.5,8.1-3.7,10.7C686,69.1,683,70.4,679.3,70.4z
						"/>
				</g>
				<g>
					<path id="Roboto-Regular-100_1_" class="st2" d="M709.2,50.9c0,8.1,1.9,14.6,5.8,19.5c3.8,4.9,8.9,7.4,15.1,7.4
						c6.2,0,11.1-2.1,14.7-6.3V99h9V24h-8.3l-0.4,5.7c-3.6-4.4-8.6-6.7-15.1-6.7c-6.1,0-11.1,2.5-15,7.5c-3.9,5-5.8,11.6-5.8,19.6
						V50.9z M718.3,49.8c0-6,1.2-10.7,3.7-14.1c2.5-3.4,5.9-5.1,10.3-5.1c5.7,0,9.9,2.6,12.5,7.7v24.3c-2.7,5-6.8,7.5-12.5,7.5
						c-4.4,0-7.9-1.7-10.4-5.1C719.5,61.6,718.3,56.5,718.3,49.8z"/>
				</g>
				<g>
					<path id="Roboto-Regular-105_3_" class="st2" d="M777.6,24h-9v52.8h9V24z M767.9,90.8c0,1.5,0.4,2.7,1.3,3.7s2.2,1.5,4,1.5
						c1.8,0,3.1-0.5,4-1.5c0.9-1,1.4-2.3,1.4-3.7c0-1.5-0.5-2.7-1.4-3.7c-0.9-1-2.2-1.5-4-1.5c-1.8,0-3.1,0.5-4,1.5
						S767.9,89.4,767.9,90.8z"/>
				</g>
				<g>
					<path id="Roboto-Regular-97_2_" class="st2" d="M824.7,24c-0.5,1-0.9,2.9-1.3,5.6c-4.2-4.4-9.2-6.5-15-6.5
						c-5.2,0-9.5,1.5-12.8,4.4s-5,6.7-5,11.2c0,5.5,2.1,9.8,6.3,12.8c4.2,3,10.1,4.6,17.7,4.6h8.8v4.2c0,3.2-0.9,5.7-2.8,7.5
						c-1.9,1.9-4.7,2.8-8.3,2.8c-3.2,0-5.9-0.8-8.1-2.4s-3.3-3.6-3.3-5.9h-9.1c0,2.6,0.9,5.2,2.8,7.6c1.9,2.5,4.4,4.4,7.6,5.8
						c3.2,1.4,6.7,2.2,10.6,2.2c6.1,0,10.9-1.5,14.3-4.6c3.4-3,5.2-7.2,5.4-12.6V36.4c0-4.9,0.6-8.7,1.8-11.6V24H824.7z M809.7,30.9
						c2.8,0,5.5,0.7,8,2.2c2.5,1.5,4.4,3.4,5.5,5.7v10.8h-7.1c-11.1,0-16.6-3.2-16.6-9.7c0-2.8,0.9-5,2.8-6.6S806.8,30.9,809.7,30.9
						z"/>
				</g>
				<g>
					<path id="Roboto-Regular-110_3_" class="st2" d="M855,76.8l0.3-6.6c4,5.1,9.3,7.6,15.8,7.6c11.2,0,16.8-6.3,16.9-18.9V24h-9v35
						c0,3.8-0.9,6.6-2.6,8.4c-1.7,1.8-4.4,2.7-8,2.7c-2.9,0-5.5-0.8-7.7-2.3c-2.2-1.6-3.9-3.6-5.2-6.2V24h-9v52.8H855z"/>
				</g>
			</g>
		</g>
	</g>
</g>
</svg>
