<?xml version="1.0" encoding="UTF-8" standalone="no"?>
<!-- Generator: Adobe Illustrator 22.0.1, SVG Export Plug-In . SVG Version: 6.00 Build 0)  -->

<svg
   xmlns:dc="http://purl.org/dc/elements/1.1/"
   xmlns:cc="http://creativecommons.org/ns#"
   xmlns:rdf="http://www.w3.org/1999/02/22-rdf-syntax-ns#"
   xmlns:svg="http://www.w3.org/2000/svg"
   xmlns="http://www.w3.org/2000/svg"
   xmlns:sodipodi="http://sodipodi.sourceforge.net/DTD/sodipodi-0.dtd"
   xmlns:inkscape="http://www.inkscape.org/namespaces/inkscape"
   version="1.1"
   id="Layer_1"
   x="0px"
   y="0px"
   viewBox="0 0 540.8 458.7"
   style="enable-background:new 0 0 540.8 458.7;"
   xml:space="preserve"
   sodipodi:docname="logo.svg"
   inkscape:version="0.92.3 (2405546, 2018-03-11)"><metadata
   id="metadata79"><rdf:RDF><cc:Work
       rdf:about=""><dc:format>image/svg+xml</dc:format><dc:type
         rdf:resource="http://purl.org/dc/dcmitype/StillImage" /></cc:Work></rdf:RDF></metadata><defs
   id="defs77" /><sodipodi:namedview
   pagecolor="#ffffff"
   bordercolor="#666666"
   borderopacity="1"
   objecttolerance="10"
   gridtolerance="10"
   guidetolerance="10"
   inkscape:pageopacity="0"
   inkscape:pageshadow="2"
   inkscape:window-width="2560"
   inkscape:window-height="1017"
   id="namedview75"
   showgrid="false"
   inkscape:zoom="0.51449748"
   inkscape:cx="-29.893026"
   inkscape:cy="229.35001"
   inkscape:window-x="1920"
   inkscape:window-y="30"
   inkscape:window-maximized="1"
   inkscape:current-layer="Layer_1" />
<style
   type="text/css"
   id="style2">
	.st0{fill:url(#SVGID_1_);}
	.st1{fill:url(#SVGID_2_);}
	.st2{fill:url(#SVGID_3_);}
	.st3{fill:url(#SVGID_4_);}
	.st4{fill:url(#SVGID_5_);}
	.st5{fill:url(#SVGID_6_);}
	.st6{fill:#40A8E2;}
</style>
<g
   id="g72"
   transform="matrix(1.0869397,0,0,1.0869397,-23.508476,-19.939604)">
	<g
   id="g46">
		<linearGradient
   id="SVGID_1_"
   gradientUnits="userSpaceOnUse"
   x1="259.0751"
   y1="315.20551"
   x2="259.0751"
   y2="50.500301">
			<stop
   offset="0"
   style="stop-color:#40A8E2"
   id="stop4" />
			<stop
   offset="1"
   style="stop-color:#3EC0B9"
   id="stop6" />
		</linearGradient>
		<path
   class="st0"
   d="m 301.2,50.5 h -84.3 c -49.6,0 -90.2,40.6 -90.2,90.2 V 225 c 0,49.6 40.6,90.2 90.2,90.2 h 84.3 c 49.6,0 90.2,-40.6 90.2,-90.2 v -84.3 c 0,-49.6 -40.6,-90.2 -90.2,-90.2 z m 52.4,49.4 c -4.1,11.4 -8.3,23 -12.4,34.2 l -3.7,10.2 -0.1,0.3 -0.1,0.3 c -0.2,0.4 -0.3,0.7 -0.5,0.9 0,0 -0.1,0.1 -0.1,0.2 l -0.1,0.1 c 8.9,6.4 12.9,17.5 9.6,28.5 -0.2,0.8 -0.5,1.6 -0.8,2.2 l -0.2,0.5 -2.2,5.8 -1.3,3.7 -0.4,1.2 c -0.5,1.5 -1,3 -1.5,4.5 v 0 0 c -6.3,17.6 -13.8,32.6 -22.7,45.9 -0.5,0.7 -0.9,1.3 -1.3,1.9 -0.4,0.5 -0.7,1 -1,1.4 -2.9,4.4 -7.3,6.7 -12.7,6.7 -0.6,0 -1.2,0 -1.9,-0.1 -2.1,-0.2 -4.2,-0.5 -6.3,-0.8 -0.4,7.3 -2.6,15.2 -9.1,21.6 -6.1,6.1 -14.2,9.2 -24.1,9.2 -1.7,0 -3.4,-0.1 -5.2,-0.3 -5.9,7.1 -14.6,14.4 -27,14.4 -12.5,0 -21.1,-7.3 -27,-14.4 -1.8,0.2 -3.6,0.3 -5.2,0.3 -9.9,0 -18,-3.1 -24.1,-9.2 -8.8,-8.8 -9.8,-20.1 -8.9,-29.3 -7.1,-5.9 -14.4,-14.6 -14.4,-27 0,-12.5 7.3,-21.1 14.4,-27 -0.8,-9.2 0.1,-20.5 8.9,-29.3 6.1,-6.1 14.2,-9.2 24.1,-9.2 1.7,0 3.4,0.1 5.2,0.3 5.9,-7.1 14.6,-14.4 27,-14.4 12.5,0 21.1,7.3 27,14.4 1.8,-0.2 3.6,-0.3 5.2,-0.3 4.9,0 9.4,0.8 13.4,2.3 l 1.2,-2.9 c 2.2,-5.1 5.7,-9.1 10.4,-11.8 4.3,-2.5 8.7,-3.8 13.3,-3.8 1.8,0 3.6,0.2 5.4,0.6 l 0.5,-1 c 0.1,-0.1 0.1,-0.2 0.2,-0.3 0.2,-0.3 0.4,-0.7 0.6,-1.2 3.6,-6.7 7.2,-13.4 10.8,-20.2 3.6,-6.8 7.2,-13.5 10.8,-20.2 3,-5.7 7.6,-6.9 10.9,-6.9 v 0 c 0.8,0 1.6,0.1 2.4,0.2 4.4,0.7 8.2,2.7 10.9,6 2.9,3.3 3.6,7.6 2.1,11.8 z"
   id="path9"
   style="fill:url(#SVGID_1_)"
   inkscape:connector-curvature="0" />
		<linearGradient
   id="SVGID_2_"
   gradientUnits="userSpaceOnUse"
   x1="274.08731"
   y1="315.20551"
   x2="274.08731"
   y2="50.500301">
			<stop
   offset="0"
   style="stop-color:#40A8E2"
   id="stop11" />
			<stop
   offset="1"
   style="stop-color:#3EC0B9"
   id="stop13" />
		</linearGradient>
		<path
   class="st1"
   d="m 323,181.8 c -1.7,4.5 -3.2,9 -5,13.4 -2.9,7.2 -6.2,14.1 -10,20.9 -2.2,3.9 -4.5,7.6 -6.9,11.3 -0.5,0.7 -1,1.1 -1.7,1.1 -0.2,0 -0.3,0 -0.5,-0.1 -1.8,-0.3 -3.7,-0.6 -5.5,-0.9 -1.5,-0.2 -3.1,-0.5 -4.6,-0.8 -1.8,-0.3 -3.7,-0.8 -5.6,-1.3 7,-10.1 11.4,-17.6 12.2,-21.1 -1,0.9 -1.9,1.7 -2.8,2.4 -1.6,1.4 -3.2,2.7 -4.9,4 -2.3,1.8 -4.8,3.5 -7.3,5 -1.7,1 -3.5,2 -5.4,2.8 -1.8,0.8 -3.5,1.3 -5.3,1.5 -0.3,0 -0.7,0 -1,0 -1.8,0 -3.6,-0.4 -5.4,-1.5 -1.1,-0.6 -2.1,-1.2 -3.2,-1.7 -2.1,-1.1 -4.2,-2 -6.4,-3.1 2.8,-3.1 5.1,-6 6.8,-8.4 1.4,-2 2.3,-3.7 2.5,-4.6 -0.7,0.6 -1.3,1.2 -2,1.7 -4,3.1 -8.7,5 -13.7,6.1 -0.2,0 -0.4,0.1 -0.6,0.1 -0.6,0 -1.3,-0.2 -1.7,-0.5 -2.9,-2.1 -5.8,-4.4 -8.6,-6.7 -1.5,-1.2 -2.9,-2.6 -4.5,-4.1 0.6,-0.1 0.8,-0.2 1,-0.2 6.7,-1.1 13.2,-2.7 19.5,-4.9 3.2,-1.2 6.4,-2.5 9.5,-4 1.1,-0.6 2.3,-1.2 3.4,-1.8 2.4,-1.4 4.8,-2.8 7,-4.5 0.5,-0.4 1,-0.7 1.5,-1.1 3.3,-2.6 6.4,-5.5 9.1,-8.9 0.2,-0.3 0.4,-0.6 0.6,-0.9 1.7,-2.2 3.2,-4.7 4.9,-7.1 -3.6,-2 -6.9,-3.9 -10.1,-5.7 -0.7,0.9 -1.3,1.9 -1.9,2.8 -1,1.4 -2,2.8 -3.1,4.1 -1.3,1.6 -2.8,3 -4.3,4.4 -1.8,1.7 -3.8,3.1 -5.9,4.5 -3.1,2.1 -6.5,3.8 -10,5.3 -1,0.4 -2,0.8 -3,1.2 -2,0.8 -4,1.4 -6,2.1 -7.9,2.4 -16,3.8 -24.3,3.9 -2.4,0 -4.5,1.1 -5.5,3.3 -1.1,2.4 -0.6,4.6 1,6.6 11.8,14.3 26.2,24.9 42.7,32.4 2.8,1.3 5.7,2.5 8.6,3.6 0.5,0.2 1,0.4 1.5,0.6 5.3,1.9 10.7,3.5 16.1,4.7 3.2,0.7 6.5,1.3 9.8,1.8 2.3,0.3 4.6,0.6 6.9,0.9 0.4,0 0.8,0.1 1.1,0.1 2.5,0 4.6,-0.9 6.1,-3.2 0.8,-1.1 1.6,-2.2 2.4,-3.4 9.3,-13.7 16.3,-28.6 21.9,-44.2 0.6,-1.8 1.3,-3.7 1.9,-5.6 -3.7,-1.3 -7.3,-2.5 -10.9,-3.8 -0.1,0.6 -0.2,1.1 -0.4,1.5 z"
   id="path16"
   style="fill:url(#SVGID_2_)"
   inkscape:connector-curvature="0" />
		<linearGradient
   id="SVGID_3_"
   gradientUnits="userSpaceOnUse"
   x1="223.436"
   y1="315.20551"
   x2="223.436"
   y2="50.500301">
			<stop
   offset="0"
   style="stop-color:#40A8E2"
   id="stop18" />
			<stop
   offset="1"
   style="stop-color:#3EC0B9"
   id="stop20" />
		</linearGradient>
		<path
   class="st2"
   d="m 206.4,235 c 3.2,3.2 5.9,7 8.5,10.8 4.5,-0.9 9.1,-1.6 13.6,-1.6 4.5,0 9.1,0.7 13.6,1.6 2.6,-3.8 5.3,-7.6 8.5,-10.8 0.2,-0.2 0.4,-0.4 0.6,-0.6 -16.7,-8.1 -30.8,-19.2 -42.1,-32.9 -2.6,-3.1 -3.7,-6.7 -3.4,-10.3 -3.1,3 -6.6,5.6 -10.3,8 0.9,4.5 1.6,9.1 1.6,13.6 0,4.5 -0.7,9.1 -1.6,13.6 4,2.6 7.8,5.4 11,8.6 z"
   id="path23"
   style="fill:url(#SVGID_3_)"
   inkscape:connector-curvature="0" />
		<linearGradient
   id="SVGID_4_"
   gradientUnits="userSpaceOnUse"
   x1="221.4433"
   y1="315.20551"
   x2="221.4433"
   y2="50.500301">
			<stop
   offset="0"
   style="stop-color:#40A8E2"
   id="stop25" />
			<stop
   offset="1"
   style="stop-color:#3EC0B9"
   id="stop27" />
		</linearGradient>
		<path
   class="st3"
   d="m 270.5,254.8 v 0 c -2.4,2.4 -5.8,3.2 -9.9,3.2 -0.7,0 -1.4,0 -2.2,-0.1 2.2,-3.3 4.4,-6.4 6.6,-8.6 2.1,-2.1 5,-4.2 8.2,-6.3 -3.2,-0.9 -6.3,-2 -9.4,-3.2 -1.1,-0.4 -2.3,-0.9 -3.4,-1.3 -1.2,1 -2.3,1.9 -3.3,3 -3.7,3.7 -6.9,8.6 -10,13.3 -0.3,0.4 -0.5,0.8 -0.8,1.2 -0.5,-0.1 -1,-0.2 -1.4,-0.3 -5.5,-1.2 -11.3,-2.4 -16.5,-2.4 -5.2,0 -10.9,1.2 -16.5,2.4 -0.5,0.1 -1,0.2 -1.4,0.3 -0.3,-0.4 -0.5,-0.8 -0.8,-1.2 -3.1,-4.7 -6.3,-9.7 -10,-13.3 -3.7,-3.7 -8.6,-6.9 -13.3,-10 -0.4,-0.3 -0.8,-0.5 -1.2,-0.8 0.1,-0.5 0.2,-1 0.3,-1.4 1.2,-5.5 2.4,-11.3 2.4,-16.5 0,-5.2 -1.2,-10.9 -2.4,-16.5 -0.1,-0.5 -0.2,-1 -0.3,-1.4 0.4,-0.3 0.8,-0.5 1.2,-0.8 4.7,-3.1 9.7,-6.3 13.3,-10 3.7,-3.7 6.9,-8.6 10,-13.3 0.3,-0.4 0.5,-0.8 0.8,-1.2 0.5,0.1 1,0.2 1.4,0.3 5.5,1.2 11.3,2.4 16.5,2.4 5.2,0 10.9,-1.2 16.5,-2.4 0.5,-0.1 1,-0.2 1.4,-0.3 0.3,0.4 0.5,0.8 0.8,1.2 0.4,0.6 0.8,1.3 1.2,1.9 3.8,-1.5 7.1,-3.2 10,-5 0,0 0,0 0,0 0,0 0,0 0.1,0 3.4,-2.2 6.3,-4.7 8.7,-7.5 0.7,-0.8 1.3,-1.7 2,-2.6 -2.7,-0.8 -5.5,-1.1 -8.4,-1.1 -3,0 -6.2,0.3 -9.3,0.8 -5.8,-8 -12.7,-15 -23,-15 -10.3,0 -17.2,7 -23,15 -3.1,-0.5 -6.2,-0.8 -9.3,-0.8 -6.5,0 -12.6,1.6 -17.6,6.5 -7.3,7.3 -7.2,17.1 -5.7,26.9 -8,5.8 -15,12.7 -15,23 0,10.3 7,17.2 15,23 -1.6,9.7 -1.6,19.6 5.7,26.9 4.9,4.9 11.1,6.5 17.6,6.5 3,0 6.2,-0.3 9.3,-0.8 5.8,8 12.7,15 23,15 10.3,0 17.2,-7 23,-15 3.1,0.5 6.2,0.8 9.3,0.8 6.5,0 12.6,-1.6 17.6,-6.5 4.7,-4.7 6.3,-10.6 6.5,-16.7 -3.8,-0.8 -7.5,-1.7 -11.2,-2.8 0.3,4.6 -0.4,8.8 -3.1,11.5 z m -42,-101.3 c 4,0 7.5,2.6 10.7,6.3 -3.9,0.8 -7.6,1.4 -10.7,1.4 -3.1,0 -6.8,-0.6 -10.7,-1.4 3.3,-3.8 6.8,-6.3 10.7,-6.3 z m -53.1,70.1 c -3.7,-3.3 -6.3,-6.8 -6.3,-10.7 0,-3.9 2.6,-7.5 6.3,-10.7 0.8,3.9 1.4,7.6 1.4,10.7 0.1,3 -0.6,6.7 -1.4,10.7 z m 11.1,-52.8 c 2.4,-2.4 5.8,-3.2 9.9,-3.2 0.7,0 1.4,0 2.2,0.1 -2.2,3.3 -4.4,6.4 -6.6,8.6 -2.2,2.2 -5.2,4.4 -8.6,6.6 -0.3,-5 0.3,-9.3 3.1,-12.1 z m 9.9,87.2 c -4,0 -7.5,-0.8 -9.9,-3.2 -2.8,-2.8 -3.5,-7.1 -3.1,-12 3.3,2.2 6.4,4.4 8.6,6.6 2.2,2.2 4.4,5.2 6.6,8.6 -0.8,0 -1.5,0 -2.2,0 z m 32.1,14.2 c -4,0 -7.5,-2.6 -10.7,-6.3 3.9,-0.8 7.6,-1.4 10.7,-1.4 3.1,0 6.8,0.6 10.7,1.4 -3.2,3.7 -6.7,6.3 -10.7,6.3 z"
   id="path30"
   style="fill:url(#SVGID_4_)"
   inkscape:connector-curvature="0" />
		<linearGradient
   id="SVGID_5_"
   gradientUnits="userSpaceOnUse"
   x1="329.28979"
   y1="315.20551"
   x2="329.28979"
   y2="50.500301">
			<stop
   offset="0"
   style="stop-color:#40A8E2"
   id="stop32" />
			<stop
   offset="1"
   style="stop-color:#3EC0B9"
   id="stop34" />
		</linearGradient>
		<path
   class="st4"
   d="m 339.5,89.8 c -0.4,-0.1 -0.9,-0.1 -1.2,-0.1 -1.8,0 -3,0.8 -3.9,2.7 -7.2,13.5 -14.4,27 -21.6,40.5 -0.2,0.4 -0.4,0.9 -0.6,1.3 0.2,0.2 0.2,0.3 0.4,0.3 5.7,2.6 11.5,5.1 17.3,7.7 0.2,-0.3 0.3,-0.5 0.4,-0.7 5.3,-14.8 10.7,-29.6 16.1,-44.4 0.6,-1.6 0.3,-2.9 -0.7,-4.1 -1.8,-1.8 -3.8,-2.8 -6.2,-3.2 z"
   id="path37"
   style="fill:url(#SVGID_5_)"
   inkscape:connector-curvature="0" />
		<linearGradient
   id="SVGID_6_"
   gradientUnits="userSpaceOnUse"
   x1="311.112"
   y1="315.20551"
   x2="311.112"
   y2="50.500301">
			<stop
   offset="0"
   style="stop-color:#40A8E2"
   id="stop39" />
			<stop
   offset="1"
   style="stop-color:#3EC0B9"
   id="stop41" />
		</linearGradient>
		<path
   class="st5"
   d="m 328.7,150.4 c -7.3,-3.4 -14.7,-6.6 -22.1,-9.8 -2.5,-1.1 -5,-1.6 -7.5,-1.6 -3.2,0 -6.3,0.9 -9.3,2.7 -3.2,1.9 -5.6,4.6 -7.2,8.2 18.5,8.2 36.8,16.4 55.3,24.6 0.3,-0.8 0.6,-1.5 0.8,-2.2 2.7,-8.9 -1.4,-17.9 -10,-21.9 z"
   id="path44"
   style="fill:url(#SVGID_6_)"
   inkscape:connector-curvature="0" />
	</g>
	<g
   id="g70">
		<path
   class="st6"
   d="m 89,335 c -3.3,0 -5.9,1.8 -7.8,5.4 l -13.2,25 -13.3,-25 c -0.9,-1.7 -2,-3 -3.3,-4 -1.4,-1 -2.9,-1.5 -4.6,-1.5 -2.3,0 -4.3,0.8 -5.9,2.4 -1.5,1.6 -2.3,3.6 -2.3,6 v 42.8 c 0,2.3 0.7,4.3 2.2,5.7 1.4,1.4 3.3,2.1 5.4,2.1 2.2,0 4.1,-0.7 5.5,-2.2 1.4,-1.4 2.2,-3.3 2.2,-5.6 v -17.6 l 6.4,11.6 c 1,1.9 2,3.2 3.2,4 1.2,0.9 2.7,1.3 4.3,1.3 1.6,0 3.1,-0.4 4.3,-1.3 1.2,-0.8 2.2,-2.2 3.2,-4 l 6.5,-12 v 18 c 0,2.3 0.7,4.3 2.2,5.7 1.4,1.4 3.3,2.1 5.4,2.1 2.2,0 4.1,-0.7 5.5,-2.1 1.4,-1.4 2.1,-3.3 2.1,-5.6 v -42.8 c 0,-2.4 -0.8,-4.5 -2.3,-6 C 93.3,335.8 91.4,335 89,335 Z"
   id="path48"
   inkscape:connector-curvature="0"
   style="fill:#40a8e2" />
		<path
   class="st6"
   d="m 140.1,340.1 c -0.8,-1.7 -2,-2.9 -3.6,-3.8 -1.6,-0.9 -3.3,-1.3 -5,-1.3 -1.8,0 -3.6,0.4 -5.1,1.3 -1.6,0.9 -2.8,2.2 -3.6,3.8 L 102,382.7 c -0.6,1.2 -0.8,2.4 -0.8,3.5 0,2.1 0.9,4 2.6,5.4 1.7,1.4 3.6,2.1 5.7,2.1 1.4,0 2.8,-0.4 4,-1.1 1.2,-0.8 2.2,-1.9 2.9,-3.4 l 3.3,-7.2 h 23.8 l 3.2,7.2 c 0.7,1.5 1.6,2.6 2.9,3.4 1.2,0.8 2.5,1.1 4,1.1 2.1,0 4,-0.7 5.6,-2.1 1.7,-1.5 2.5,-3.3 2.5,-5.4 0,-1.1 -0.3,-2.3 -0.8,-3.5 z m -2.6,28.4 h -11.7 l 5.8,-13 z"
   id="path50"
   inkscape:connector-curvature="0"
   style="fill:#40a8e2" />
		<path
   class="st6"
   d="m 208.6,359.5 h -13 c -2.1,0 -3.7,0.6 -4.9,1.6 -1.2,1.1 -1.8,2.7 -1.8,4.6 0,1.9 0.6,3.5 1.8,4.6 1.2,1.1 2.8,1.6 4.9,1.6 h 4.4 v 7.9 c -2,0.4 -4.1,0.6 -6.2,0.6 -4.8,0 -8.4,-1.3 -10.7,-3.8 -2.3,-2.6 -3.5,-6.7 -3.5,-12.3 0,-5.4 1.1,-9.4 3.3,-12 2.2,-2.5 5.6,-3.7 10.1,-3.7 1.9,0 3.6,0.2 5.2,0.7 1.6,0.4 3.3,1.2 5.2,2.2 1,0.6 1.8,1 2.5,1.3 0.8,0.3 1.6,0.4 2.6,0.4 1.7,0 3.1,-0.7 4.3,-2.2 1.1,-1.4 1.6,-3 1.6,-4.9 0,-1.4 -0.3,-2.5 -0.7,-3.5 -0.5,-0.9 -1.3,-1.8 -2.3,-2.5 -2.6,-1.9 -5.5,-3.3 -8.5,-4.2 -3,-0.9 -6.5,-1.4 -10.2,-1.4 -6,0 -11.4,1.2 -15.9,3.6 -4.6,2.4 -8.1,5.9 -10.6,10.4 -2.5,4.5 -3.7,9.7 -3.7,15.7 0,6.1 1.2,11.4 3.7,15.9 2.5,4.5 6.1,8 10.7,10.4 4.6,2.4 10.1,3.6 16.3,3.6 2.2,0 4.6,-0.1 7.1,-0.4 2.5,-0.3 4.9,-0.7 7,-1.3 2.3,-0.6 3.9,-1.4 5.1,-2.3 1.2,-1 2.1,-2.3 2.6,-3.9 0.4,-1.5 0.6,-3.6 0.6,-6.4 v -13.7 c 0,-2 -0.7,-3.6 -1.9,-4.8 -1.4,-1.2 -3.1,-1.8 -5.1,-1.8 z"
   id="path52"
   inkscape:connector-curvature="0"
   style="fill:#40a8e2" />
		<path
   class="st6"
   d="m 259.1,354 c -2.8,-1.8 -6,-2.8 -9.6,-2.8 -2.8,0 -5.3,0.6 -7.6,1.7 -1.4,0.7 -2.7,1.6 -3.7,2.6 -0.4,-0.9 -1,-1.6 -1.8,-2.3 -1.5,-1.3 -3.4,-1.9 -5.7,-1.9 -2.4,0 -4.4,0.7 -5.9,2.1 -1.5,1.4 -2.3,3.3 -2.3,5.6 v 41.3 c 0,2.2 0.8,4.1 2.4,5.5 1.6,1.4 3.6,2.1 6.1,2.1 2.4,0 4.3,-0.7 5.8,-2 1.6,-1.4 2.3,-3.2 2.3,-5.4 v -10 c 0.9,0.7 1.9,1.3 3,1.9 2.2,1.1 4.7,1.6 7.4,1.6 3.6,0 6.8,-0.9 9.6,-2.6 2.8,-1.8 5,-4.3 6.5,-7.5 1.5,-3.2 2.3,-6.9 2.3,-11.1 0,-4.2 -0.8,-7.9 -2.3,-11.2 -1.5,-3.2 -3.7,-5.8 -6.5,-7.6 z m -7.7,18.9 c 0,2.7 -0.6,4.8 -1.6,6.2 -1,1.3 -2.5,1.9 -4.5,1.9 -2.1,0 -3.6,-0.6 -4.6,-2 -1.1,-1.4 -1.7,-3.5 -1.7,-6.3 0,-2.8 0.6,-5 1.7,-6.4 1.1,-1.4 2.5,-2 4.6,-2 2,0 3.5,0.7 4.5,2 1.1,1.5 1.6,3.7 1.6,6.6 z"
   id="path54"
   inkscape:connector-curvature="0"
   style="fill:#40a8e2" />
		<path
   class="st6"
   d="m 305.7,351.4 c -2.5,0 -4.5,0.7 -6,2.1 -1.5,1.4 -2.3,3.3 -2.3,5.7 v 15.6 c 0,1.9 -0.5,3.4 -1.5,4.5 -1,1.1 -2.2,1.6 -3.7,1.6 -1.8,0 -3.6,-0.5 -3.6,-4.4 v -17.3 c 0,-2.4 -0.8,-4.3 -2.3,-5.7 -1.5,-1.4 -3.5,-2.1 -6,-2.1 -2.5,0 -4.5,0.7 -6,2.1 -1.5,1.4 -2.3,3.3 -2.3,5.7 v 17 c 0,5.9 1.3,10.4 3.9,13.4 2.7,3 6.7,4.6 12.1,4.6 2.6,0 5,-0.6 7,-1.7 1.2,-0.7 2.4,-1.5 3.3,-2.5 0.4,0.8 1,1.6 1.7,2.2 1.4,1.2 3.3,1.8 5.5,1.8 2.4,0 4.4,-0.7 6,-2.1 1.6,-1.4 2.4,-3.3 2.4,-5.5 v -27.2 c 0,-2.4 -0.8,-4.3 -2.3,-5.7 -1.4,-1.4 -3.5,-2.1 -5.9,-2.1 z"
   id="path56"
   inkscape:connector-curvature="0"
   style="fill:#40a8e2" />
		<path
   class="st6"
   d="m 346.8,351.3 c -0.3,0 -0.6,0 -0.8,0 l -1.1,0.1 c -2.3,0.1 -4.5,0.9 -6.6,2.3 -1,0.6 -1.8,1.4 -2.5,2.2 -0.4,-1 -1,-1.9 -1.8,-2.7 -1.4,-1.3 -3.3,-1.9 -5.6,-1.9 -2.2,0 -4.1,0.7 -5.7,2 -1.6,1.4 -2.5,3.3 -2.5,5.7 v 27.2 c 0,2.6 0.8,4.5 2.5,5.9 1.6,1.3 3.5,1.9 5.8,1.9 2.3,0 4.2,-0.6 5.8,-1.9 1.7,-1.3 2.5,-3.3 2.5,-5.9 v -13.5 c 0,-2 0.5,-3.5 1.4,-4.6 0.9,-1.1 2.5,-1.7 4.8,-2 l 2.3,-0.2 c 2.9,-0.3 4.8,-1 6,-2.2 1.2,-1.2 1.9,-3 1.9,-5.5 0,-2.3 -0.7,-4 -2,-5.3 -1.1,-1 -2.6,-1.6 -4.4,-1.6 z"
   id="path58"
   inkscape:connector-curvature="0"
   style="fill:#40a8e2" />
		<path
   class="st6"
   d="m 370,353.3 c -1.6,-1.3 -3.5,-1.9 -5.8,-1.9 -2.3,0 -4.2,0.6 -5.8,1.9 -1.7,1.3 -2.5,3.3 -2.5,5.9 v 27.1 c 0,2.6 0.8,4.5 2.5,5.9 1.6,1.3 3.5,1.9 5.8,1.9 2.3,0 4.2,-0.6 5.8,-1.9 1.7,-1.3 2.5,-3.3 2.5,-5.9 v -27.1 c 0,-2.6 -0.8,-4.6 -2.5,-5.9 z"
   id="path60"
   inkscape:connector-curvature="0"
   style="fill:#40a8e2" />
		<path
   class="st6"
   d="m 370.6,334.5 c -1.7,-1.4 -3.8,-2.1 -6.4,-2.1 -2.7,0 -4.9,0.7 -6.5,2.1 -1.7,1.5 -2.5,3.4 -2.5,5.9 0,2.4 0.8,4.4 2.5,5.9 1.6,1.4 3.8,2.2 6.5,2.2 2.7,0 4.9,-0.7 6.5,-2.2 1.7,-1.5 2.5,-3.5 2.5,-5.9 0,-2.4 -0.9,-4.4 -2.6,-5.9 z"
   id="path62"
   inkscape:connector-curvature="0"
   style="fill:#40a8e2" />
		<path
   class="st6"
   d="m 404.4,348 2,-0.2 c 1.9,-0.1 3.5,-0.7 4.6,-1.8 1.2,-1.1 1.8,-2.7 1.8,-4.6 0,-2 -0.7,-3.5 -2,-4.6 -1.3,-1.1 -3.1,-1.6 -5.7,-1.6 -0.7,0 -1.3,0 -1.8,0.1 l -2,0.2 c -5.3,0.4 -9.5,2.1 -12.7,5.2 -2.9,2.8 -4.5,6.7 -4.9,11.5 h -1 c -6.6,0 -7.6,4 -7.6,6.4 0,2.4 1,6.5 7.6,6.5 h 1 v 21 c 0,2.6 0.8,4.5 2.5,5.9 1.6,1.3 3.5,2 5.8,2 2.3,0 4.3,-0.7 5.8,-2 1.6,-1.4 2.5,-3.3 2.5,-5.9 v -21 h 3 c 6.6,0 7.6,-4.1 7.6,-6.5 0,-2.4 -1,-6.4 -7.6,-6.4 h -3 c 0,-1.2 0.3,-2.2 0.9,-2.9 0.6,-0.8 1.7,-1.2 3.2,-1.3 z"
   id="path64"
   inkscape:connector-curvature="0"
   style="fill:#40a8e2" />
		<path
   class="st6"
   d="m 455.6,353.5 c -1.6,-1.4 -3.5,-2 -5.5,-2 -1.5,0 -2.8,0.4 -4,1.1 -1.2,0.8 -2.2,1.9 -2.9,3.5 l -7.1,15.5 -7.1,-15.5 c -0.7,-1.5 -1.7,-2.7 -3,-3.5 -1.3,-0.8 -2.7,-1.2 -4.2,-1.2 -2.1,0 -4.1,0.7 -5.8,2.1 -1.8,1.4 -2.7,3.2 -2.7,5.3 0,0.9 0.3,1.9 0.7,3.1 l 13.1,26.2 -4.8,9.7 c -0.6,1.1 -0.8,2.2 -0.8,3.3 0,2 0.8,3.7 2.5,5.1 1.6,1.3 3.4,2 5.4,2 1.4,0 2.8,-0.4 4,-1.1 1.2,-0.8 2.2,-1.9 3,-3.5 l 20.8,-41.8 c 0.5,-1 0.8,-2.1 0.8,-3.2 0.1,-2 -0.7,-3.7 -2.4,-5.1 z"
   id="path66"
   inkscape:connector-curvature="0"
   style="fill:#40a8e2" />
		<path
   class="st6"
   d="m 500,381 c -1.4,-1.1 -3.3,-1.7 -6,-1.7 h -12.7 l 9,-9.2 c 3.2,-3.3 5.5,-6.4 6.8,-9.2 1.4,-2.8 2.1,-6 2.1,-9.3 0,-3.3 -0.9,-6.4 -2.6,-9 -1.7,-2.6 -4.2,-4.6 -7.4,-6 -3.1,-1.4 -6.7,-2 -10.8,-2 -3.1,0 -6.3,0.5 -9.5,1.5 -3.2,1 -6.1,2.4 -8.7,4.1 -1.1,0.8 -1.9,1.6 -2.4,2.6 -0.4,0.9 -0.6,2 -0.6,3.4 0,1.9 0.5,3.6 1.6,5 1.1,1.5 2.6,2.3 4.4,2.3 0.7,0 1.3,-0.1 1.9,-0.3 0.6,-0.2 1.2,-0.5 1.8,-0.9 0.6,-0.3 1,-0.5 1.2,-0.6 l 1.6,-0.8 c 1.6,-0.8 3.1,-1.4 4.3,-1.9 1.1,-0.4 2.4,-0.6 3.8,-0.6 1.5,0 2.7,0.4 3.5,1.1 0.7,0.7 1.1,1.7 1.1,3.1 0,2.7 -1.6,5.7 -4.8,9.1 l -16.7,17.4 c -2,2.1 -3,4.4 -3,7 0,2.1 0.7,3.8 2,5.2 1.4,1.4 3.2,2.1 5.4,2.1 H 494 c 2.6,0 4.6,-0.6 6,-1.7 1.4,-1.2 2.2,-3 2.2,-5.4 0,-2.3 -0.8,-4.1 -2.2,-5.3 z"
   id="path68"
   inkscape:connector-curvature="0"
   style="fill:#40a8e2" />
	</g>
</g>
</svg>